<svg width="282" height="267" viewBox="0 0 282 267" fill="none" xmlns="http://www.w3.org/2000/svg">
<path d="M158.327 95.2046C155.396 95.2046 82.3243 94.6956 61.6877 94.6956C60.2403 94.6956 62.0679 92.1995 62.859 92.0217C65.398 91.4697 68.0412 91.4084 70.623 91.1754C73.1673 90.9398 75.661 90.3194 78.0191 89.3355C80.0491 88.4831 82.079 87.4957 84.2745 87.1462C88.5306 86.4777 92.2471 88.7836 96.2456 89.8016C97.4562 90.1523 98.7268 90.245 99.9755 90.0739C101.224 89.9028 102.423 89.4716 103.495 88.8081C105.334 87.7042 107.015 86.355 108.947 85.3983C112.637 83.5846 116.662 82.5515 120.77 82.3636C124.878 82.1758 128.981 82.8373 132.821 84.3067C134.652 85.0112 136.404 85.9074 138.046 86.9806C139.997 88.2562 141.671 89.8936 143.627 91.157C147.957 93.9535 153.305 93.0458 158.027 94.6526C158.284 94.7201 158.579 95.2046 158.327 95.2046Z" fill="#EBEBEB"/>
<path d="M82.8824 36.9497C79.0126 36.9497 13.8646 37.379 9.76795 37.2502C9.47358 37.2502 9.31413 36.8087 9.6085 36.637C12.1904 35.3614 15.128 35.6189 17.7957 34.7113C19.3779 34.1839 20.3469 33.1474 21.4385 31.9638C22.348 30.9342 23.5203 30.171 24.8299 29.756C26.0251 29.3953 27.294 29.3551 28.5096 29.6395C29.8342 29.9523 30.9627 30.7066 32.2383 31.185C35.3721 32.3686 38.4139 31.2463 40.6463 28.9281C42.4861 27.0208 44.3259 25.2178 46.779 24.1936C47.8096 23.7288 48.9255 23.4828 50.056 23.4712C51.1865 23.4596 52.3072 23.6826 53.3471 24.1262C55.7328 25.2055 57.3764 27.3827 59.6209 28.6951C62.2825 30.2528 65.4593 29.8848 68.403 30.3509C71.3467 30.817 73.5974 33.2946 76.1732 34.7236C77.0141 35.2603 77.9848 35.5592 78.982 35.5883C79.5562 35.5391 80.1273 35.4593 80.693 35.3491C81.5822 35.2387 82.4224 35.2632 83.0234 36.0053C83.1645 36.1831 83.1338 36.9497 82.8824 36.9497Z" fill="#EBEBEB"/>
<path d="M205.788 67.4417C202.961 67.4417 155.396 67.7606 152.434 67.6625C152.219 67.6625 152.103 67.3374 152.317 67.2332C154.2 66.301 156.334 66.4911 158.297 65.8288C159.345 65.4102 160.262 64.7176 160.952 63.8234C161.611 63.0744 162.458 62.5154 163.405 62.2043C164.28 61.9421 165.209 61.9146 166.097 62.1246C167.031 62.4404 167.943 62.8173 168.826 63.253C171.108 64.1177 173.328 63.2959 174.959 61.6033C176.308 60.2112 177.627 58.8988 179.461 58.1445C180.208 57.807 181.017 57.6274 181.837 57.6169C182.657 57.6063 183.47 57.7651 184.226 58.0831C185.967 58.8681 187.163 60.4626 188.801 61.4193C190.745 62.5539 193.094 62.284 195.216 62.6459C197.338 63.0077 199.006 64.7923 200.888 65.8349C201.505 66.2211 202.215 66.433 202.943 66.4482C203.36 66.4482 203.777 66.3194 204.169 66.2703C204.469 66.1882 204.786 66.1893 205.085 66.2736C205.385 66.3579 205.655 66.5221 205.868 66.7487C206.015 66.8836 205.972 67.4417 205.788 67.4417Z" fill="#EBEBEB"/>
<path d="M102.869 14.461C100.042 14.461 52.4763 14.7738 49.5142 14.6818C49.2996 14.6818 49.183 14.3567 49.3977 14.2525C51.2804 13.3203 53.4208 13.5043 55.3771 12.8481C56.4235 12.4253 57.3396 11.7335 58.0326 10.8427C58.6889 10.0912 59.5367 9.53168 60.4857 9.22364C61.3605 8.96247 62.2882 8.93289 63.1779 9.13778C64.1105 9.4583 65.022 9.83724 65.907 10.2723C68.1884 11.1309 70.4084 10.3153 72.0397 8.62263C73.3889 7.2305 74.7075 5.91197 76.5412 5.16377C77.2881 4.82539 78.0968 4.64474 78.9167 4.63314C79.7366 4.62153 80.5501 4.77921 81.3063 5.09631C83.048 5.88743 84.2439 7.47581 85.8813 8.43252C87.8254 9.56707 90.1742 9.30337 92.2962 9.65906C94.4181 10.0148 96.0862 11.8117 97.9689 12.8542C98.5857 13.2407 99.2957 13.4527 100.023 13.4675C100.435 13.4291 100.844 13.3697 101.25 13.2896C101.55 13.2075 101.866 13.2086 102.166 13.2929C102.465 13.3772 102.736 13.5414 102.949 13.768C103.078 13.9029 103.053 14.461 102.869 14.461Z" fill="#EBEBEB"/>
<path d="M260.351 27.0638H179.589C179.258 27.0638 179.142 26.7203 179.467 26.567C182.361 25.2055 185.6 25.5612 188.592 24.6168C190.359 24.0649 191.456 22.9426 192.695 21.6547C193.728 20.5322 195.046 19.7118 196.51 19.2813C197.848 18.9084 199.261 18.8936 200.606 19.2384C202.066 19.6186 203.317 20.4649 204.703 21.0414C208.15 22.4213 211.547 21.2499 214.08 18.7294C216.165 16.6565 218.22 14.7002 221.022 13.6208C222.167 13.1308 223.4 12.8823 224.646 12.8907C225.891 12.8991 227.121 13.1644 228.259 13.6699C230.884 14.8964 232.65 17.3495 235.109 18.8827C238.028 20.6673 241.567 20.33 244.811 20.9188C248.055 21.5075 250.784 22.8996 253.593 24.5493C254.512 25.1696 255.583 25.526 256.69 25.5796C257.327 25.5377 257.962 25.4619 258.591 25.3527C259.579 25.2485 260.511 25.2975 261.155 26.1316C261.314 26.334 262.253 27.0638 260.351 27.0638Z" fill="#EBEBEB"/>
<path d="M6.7016 263.916C89.2237 263.542 181.791 263.536 264.313 263.916C181.791 264.296 89.2237 264.29 6.7016 263.916Z" fill="#263238"/>
<path d="M6.7016 131.332C89.2237 130.952 181.791 130.952 264.313 131.332C181.791 131.707 89.2237 131.707 6.7016 131.332Z" fill="#DBDBDB"/>
<path d="M26.357 194.776C47.4965 194.365 71.0094 194.377 92.1674 194.776C71.0033 195.168 47.5027 195.18 26.357 194.776Z" fill="#DBDBDB"/>
<path d="M179.369 207.335C200.508 206.931 224.021 206.943 245.179 207.335C224.015 207.734 200.514 207.746 179.369 207.335Z" fill="#DBDBDB"/>
<path d="M36.5681 226.077C57.7137 225.672 81.2205 225.678 102.378 226.077C81.2144 226.476 57.7137 226.488 36.5681 226.077Z" fill="#DBDBDB"/>
<path d="M7.7074 220.846C22.0457 220.429 36.4822 220.429 50.8266 220.846C36.476 221.257 22.0457 221.257 7.7074 220.846Z" fill="#DBDBDB"/>
<path d="M229.252 200.675C243.591 200.264 258.027 200.264 272.372 200.675C258.027 201.086 243.591 201.086 229.252 200.675Z" fill="#DBDBDB"/>
<path d="M135.489 188.293C182.417 187.895 235.066 187.889 282 188.293C235.066 188.692 182.417 188.692 135.489 188.293Z" fill="#DBDBDB"/>
<path d="M1.57465 167.375C37.1445 166.976 77.0073 166.97 112.54 167.375C76.9705 167.773 37.1077 167.773 1.57465 167.375Z" fill="#DBDBDB"/>
<path d="M150.361 167.375C185.931 166.976 225.794 166.97 261.363 167.375C225.794 167.773 185.931 167.773 150.392 167.375H150.361Z" fill="#DBDBDB"/>
<path d="M163.148 167.375H242.358L235.226 123.863L231.35 117.135L228.289 104.49L223.193 98.9823L222.169 94.9041L215.239 86.1343L214.012 71.0477L209.529 60.849L199.533 61.5604L193.413 60.849L186.378 57.7888L176.793 67.6809L172.555 112.56L164.018 129.64L163.148 167.375Z" fill="#455A64"/>
<path d="M199.533 61.5604L204.869 81.9885L196.203 128.487L217.686 143.714L216.324 151.601L202.728 167.375H242.358L235.226 123.863L231.35 117.135L228.289 104.49L223.193 98.9823L222.169 94.9041L215.239 86.1342L214.012 71.0477L209.529 60.849L199.533 61.5604Z" fill="#37474F"/>
<path d="M193.413 60.849L190.359 83.0801L187.912 72.8814L193.413 60.849Z" fill="#37474F"/>
<path d="M260.811 104.066L249.184 98.5592L241.027 129.591L228.792 133.632L213.7 156.274L212.271 188.293H267.968L260.811 104.066Z" fill="#455A64"/>
<path d="M236.777 188.293L231.276 157.703L228.621 170.754L223.727 178.095L221.482 188.293H236.777Z" fill="#37474F"/>
<path d="M248.202 188.293H267.968L260.811 104.066L249.184 98.5592L258.671 137.441L250.036 155.863L251.257 168.712L248.202 188.293Z" fill="#37474F"/>
<path d="M90.5054 167.375H3.63519L6.78742 123.63L13.3924 115.443L15.1218 87.1277L25.4187 73.3904L38.696 74.5127L47.613 102.95L57.0881 105.52L75.4066 144.401L82.6371 150.185L82.956 158.537L91.1493 162.389L90.5054 167.375Z" fill="#455A64"/>
<path d="M57.8547 167.375L45.2029 143.757L29.9017 135.441L34.8385 113.756L26.0442 96.9463L25.4187 73.3904L15.1218 87.1277L13.3924 115.443L6.78742 123.63L3.63519 167.375H57.8547Z" fill="#37474F"/>
<path d="M47.613 102.95L55.8064 121.348L57.0881 105.52L47.613 102.95Z" fill="#37474F"/>
<path d="M75.4065 144.401L72.5548 150.142L75.4065 154.839L73.2785 159.899L82.637 150.185L75.4065 144.401Z" fill="#37474F"/>
<path d="M47.4597 182.118L58.6029 176.69L63.0798 181.547L72.7388 182.455L82.8088 188.784L85.777 194.776H41.8115L47.4597 182.118Z" fill="#455A64"/>
<path d="M66.4344 194.776L70.7764 187.876L72.8738 190.82L76.7374 192.476L78.5036 194.776H66.4344Z" fill="#37474F"/>
<path d="M57.4193 194.776H41.8115L47.4597 182.118L58.6029 176.69L53.7764 184.344L55.9658 187.465L55.003 190.36L57.4193 194.776Z" fill="#37474F"/>
<path d="M14.8459 249.633C12.8466 249.707 10.6204 249.817 8.96457 248.523C7.43751 247.358 6.08831 245.518 6.2723 243.494C6.33362 242.911 6.46854 242.55 7.09408 242.801C8.04466 243.181 8.78058 244.23 9.44292 244.972C10.2817 245.935 11.2121 246.814 12.221 247.597C12.9324 248.143 13.699 248.615 14.4227 249.142L14.6925 249.345C14.7298 249.368 14.7647 249.395 14.7968 249.424H14.8581C14.8741 249.423 14.89 249.427 14.9041 249.435C14.9182 249.442 14.9299 249.453 14.9378 249.467V249.504C14.9414 249.519 14.9418 249.534 14.939 249.549C14.9362 249.563 14.9302 249.577 14.9215 249.59C14.9127 249.602 14.9014 249.612 14.8884 249.62C14.8753 249.627 14.8608 249.632 14.8459 249.633Z" fill="#2FA45E"/>
<path d="M14.9501 249.504C13.19 249.474 11.2705 249.553 9.88448 248.357C9.24157 247.785 8.69126 247.117 8.25317 246.376C8.05079 246.045 7.44365 245.058 7.69509 244.665C8.15505 243.96 10.2463 246.849 10.5345 247.119C11.6333 248.113 12.9707 248.806 14.4166 249.13L14.6864 249.332C13.6621 249.118 12.6786 248.741 11.7734 248.216C10.5468 247.468 9.83542 246.376 8.86031 245.346C8.64567 245.119 8.00786 244.371 7.76869 244.837C7.61537 245.144 8.20411 246.113 8.32677 246.315C8.74644 247.017 9.26717 247.654 9.87221 248.204C11.2705 249.431 13.1594 249.382 14.9317 249.431L14.9501 249.504Z" fill="white"/>
<path d="M15.9497 250.853C15.9497 250.933 15.9497 251.007 15.9007 251.086C15.899 251.096 15.8947 251.105 15.8882 251.113C15.8817 251.12 15.8733 251.126 15.8639 251.129C15.8442 251.135 15.8233 251.133 15.8044 251.126C15.7855 251.118 15.7698 251.104 15.7596 251.086C15.7535 251.071 15.7535 251.053 15.7596 251.037C15.7602 251.027 15.7602 251.017 15.7596 251.007V250.939C15.4101 249.621 15.269 248.241 14.8949 246.922C14.5208 245.604 14.0977 244.42 13.8401 243.126C13.6806 242.317 13.1164 238.22 14.9133 238.747C15.7106 238.968 16.2564 240.121 16.5569 240.814C16.9508 241.744 17.1751 242.737 17.2192 243.746C17.3664 246.205 16.4526 248.468 15.9497 250.853Z" fill="#2FA45E"/>
<path d="M16.5139 245.775C16.5534 244.844 16.4563 243.913 16.2257 243.01C16.146 242.697 15.7535 241.17 15.2445 241.231C14.9194 241.231 14.8642 241.9 14.8336 242.114C14.8112 243.033 14.9312 243.949 15.1893 244.831C15.5412 246.63 15.7625 248.452 15.8516 250.283C15.8516 250.393 15.8148 250.516 15.8026 250.626L15.7658 250.915C15.7691 250.947 15.7691 250.98 15.7658 251.013C15.7658 251.013 15.7658 251.068 15.7658 251.093C15.775 251.111 15.7907 251.126 15.8098 251.134C15.829 251.141 15.8504 251.142 15.87 251.135C15.87 251.056 15.87 250.982 15.9007 250.909C15.9007 250.97 15.9007 251.031 15.9007 251.093L15.9375 250.902C15.9375 250.902 15.9375 250.902 15.9375 250.859C15.9375 250.817 15.9375 250.657 15.9375 250.559C16.2271 248.978 16.4196 247.38 16.5139 245.775ZM15.9007 249.897C15.8516 248.823 15.7474 247.756 15.594 246.695C15.4714 245.843 15.3119 244.997 15.1341 244.156C15.0167 243.681 14.9388 243.197 14.901 242.709C14.901 242.335 14.9378 240.961 15.6492 241.814C16.1644 242.427 16.2625 243.752 16.3484 244.512C16.4055 245.356 16.3891 246.204 16.2993 247.045C16.2196 247.971 16.0601 248.946 15.9007 249.897Z" fill="white"/>
<path d="M17.0291 256.342H16.9555C15.1157 256.25 12.6626 256.422 11.1662 255.214C10.0439 254.318 8.94003 252.552 9.29573 251.056C9.70049 249.369 11.9819 251.393 12.5829 251.884C14.1567 253.251 15.6534 254.705 17.0659 256.238V256.275C17.1272 256.318 17.0659 256.33 17.0291 256.342Z" fill="#2FA45E"/>
<path d="M17.0905 256.287L16.7777 256.091C15.5511 255.33 14.3982 254.521 13.2759 253.638C12.9938 253.423 10.9332 251.589 10.6204 252.245C10.4364 252.644 11.1172 253.472 11.3318 253.723C11.7258 254.206 12.1961 254.62 12.724 254.95C13.9505 255.71 15.4162 255.87 16.7961 256.238L16.9923 256.287C17.0721 256.33 17.1273 256.318 17.0905 256.287ZM13.4722 255.244C12.8896 254.981 12.3565 254.621 11.896 254.177C11.5894 253.889 10.51 252.791 10.7983 252.337C10.9455 252.098 11.0743 252.227 11.3686 252.368C11.4974 252.436 11.6323 252.515 11.755 252.595C12.0616 252.797 12.3683 253.03 12.6258 253.257C13.1287 253.662 13.6377 254.049 14.159 254.423C15.0115 255.036 15.8823 255.649 16.7777 256.183C15.6491 255.94 14.5369 255.627 13.4476 255.244H13.4722Z" fill="white"/>
<path d="M20.3653 252.577C19.8884 254.671 18.7972 256.576 17.2315 258.047C17.2268 258.05 17.2215 258.051 17.2161 258.051C17.2107 258.051 17.2055 258.05 17.2008 258.047C17.1836 258.052 17.1651 258.051 17.1484 258.045C17.1317 258.038 17.1177 258.026 17.1088 258.01C17.1019 258.003 17.0965 257.995 17.0928 257.986C17.0891 257.977 17.0872 257.968 17.0872 257.958C17.0872 257.948 17.0891 257.939 17.0928 257.93C17.0965 257.921 17.1019 257.913 17.1088 257.906L17.2008 257.814C17.5074 255.33 17.8141 252.859 18.0962 250.369C18.1514 249.756 18.6113 246.039 19.7643 246.652C20.4695 247.027 20.5186 248.56 20.5799 249.247C20.6792 250.361 20.6068 251.484 20.3653 252.577Z" fill="#2FA45E"/>
<path d="M19.703 249.24C19.6416 249.038 19.5313 248.823 19.2982 248.964C18.8567 249.247 18.6849 251.001 18.6052 251.491C18.2986 253.497 17.8202 255.422 17.3419 257.385C17.2989 257.55 17.256 257.716 17.2192 257.881L17.1088 258.035C17.1219 258.045 17.1381 258.051 17.1548 258.051C17.1715 258.051 17.1878 258.045 17.2008 258.035C17.2008 258.035 17.2008 258.035 17.2008 257.986L17.3541 257.783C18.1437 256.709 18.7642 255.519 19.194 254.257C19.4532 253.459 19.6319 252.637 19.7275 251.804C19.8759 250.955 19.8675 250.086 19.703 249.24ZM17.3603 257.679L17.2867 257.777C17.2867 257.71 17.3357 257.642 17.3541 257.575C17.8248 256.08 18.1976 254.556 18.4703 253.012C18.6052 252.233 18.6849 251.442 18.8505 250.663C18.918 250.332 19.0774 249.394 19.3473 249.24C19.6171 249.087 19.6171 249.455 19.6416 249.67C19.6539 249.86 19.6539 250.05 19.6416 250.24C19.6844 252.898 18.8859 255.502 17.3603 257.679Z" fill="white"/>
<path d="M17.5381 263.407H17.1702V262.444C17.1272 261.144 17.072 259.844 16.9923 258.544C16.9494 257.808 16.9003 257.072 16.8206 256.342C16.8206 256.342 16.8206 256.293 16.8206 256.269V256.091C16.8206 256.029 16.8206 255.962 16.8206 255.894C16.6632 254.25 16.2493 252.64 15.5941 251.123C15.361 250.62 15.1096 250.124 14.8397 249.639L14.76 249.498V249.461L14.6803 249.314C14.6575 249.279 14.637 249.242 14.619 249.204C13.7726 247.72 12.7791 246.297 11.8838 244.862C11.62 244.457 11.3563 244.04 11.1049 243.635L11.0558 243.562C11.0319 243.533 11.0113 243.502 10.9945 243.47C9.84155 241.63 8.707 239.821 7.51111 238.036C7.46819 237.968 7.57244 237.907 7.6215 237.975C8.42489 239.158 9.26508 240.323 10.0746 241.495L10.4058 241.961L10.9945 242.881C11.4299 243.494 11.8531 244.107 12.2762 244.751C13.5053 246.498 14.6296 248.317 15.6431 250.197L15.8455 250.626C15.8884 250.718 15.9375 250.81 15.9743 250.896L16.1153 251.209C16.8578 253.042 17.273 254.991 17.3419 256.968C17.3419 257.103 17.3419 257.244 17.3726 257.385C17.4032 257.526 17.3726 257.514 17.3726 257.575C17.3696 257.61 17.3696 257.644 17.3726 257.679C17.3696 257.724 17.3696 257.769 17.3726 257.814V257.912V258.268C17.4216 259.568 17.4584 260.866 17.4829 262.162C17.5075 262.573 17.5197 262.99 17.5381 263.407Z" fill="#2FA45E"/>
<path d="M6.628 239.882C5.62223 238.539 4.34049 235.761 5.81847 234.313C6.08757 234.036 6.44932 233.867 6.83491 233.838C7.2205 233.81 7.60303 233.925 7.90974 234.16C8.68859 234.724 9.03816 235.791 9.2896 236.674C9.9642 239.023 10.4119 241.427 11.2582 243.733C11.2582 243.733 11.3257 243.929 11.3502 243.979C11.3747 244.028 11.2889 244.046 11.2705 243.979L11.1907 243.752C9.59624 242.623 7.81161 241.476 6.628 239.882Z" fill="#2FA45E"/>
<path d="M11.2705 243.739C11.2725 243.725 11.2725 243.711 11.2705 243.696C10.9241 243.135 10.6108 242.553 10.3322 241.955C9.77596 240.701 9.29672 239.415 8.8971 238.103C8.73765 237.594 8.01399 235.123 7.13087 236.11C6.83137 236.607 6.73888 237.202 6.8733 237.766C6.9764 238.581 7.23674 239.368 7.63989 240.084C8.48938 241.464 9.6224 242.647 10.9638 243.555L11.1417 243.69L11.1785 243.752V243.788C11.1836 243.794 11.1898 243.798 11.1967 243.801C11.2035 243.804 11.2109 243.805 11.2183 243.805C11.2258 243.805 11.2332 243.804 11.24 243.801C11.2469 243.798 11.253 243.794 11.2582 243.788L11.2705 243.739ZM10.878 243.463C9.80375 242.669 8.85486 241.718 8.06305 240.642C7.6657 240.066 7.35571 239.433 7.14314 238.766C7.05603 238.468 6.99044 238.165 6.94689 237.858C6.91325 237.629 6.90093 237.397 6.91009 237.165C6.91009 236.656 7.13087 236.104 7.43137 236.049C7.73188 235.994 7.92813 236.196 8.17344 236.625C8.25679 236.77 8.33054 236.919 8.39421 237.073C8.55411 237.456 8.69332 237.847 8.81124 238.244C9.01975 238.901 9.22827 239.551 9.46131 240.195C9.62076 240.63 9.79248 241.066 9.97646 241.489C10.2932 242.224 10.66 242.937 11.0742 243.623L10.878 243.463Z" fill="white"/>
<path d="M228.707 249.633C230.706 249.707 232.938 249.817 234.594 248.523C236.121 247.327 237.489 245.542 237.286 243.494C237.225 242.911 237.09 242.55 236.464 242.801C235.514 243.181 234.778 244.23 234.116 244.972C233.277 245.933 232.349 246.812 231.344 247.597C230.632 248.143 229.866 248.615 229.142 249.142L228.866 249.345L228.762 249.424H228.707C228.691 249.423 228.675 249.427 228.661 249.435C228.646 249.442 228.635 249.453 228.627 249.467V249.504C228.623 249.518 228.622 249.532 228.624 249.546C228.627 249.56 228.632 249.574 228.639 249.586C228.646 249.598 228.656 249.608 228.668 249.616C228.68 249.624 228.693 249.63 228.707 249.633Z" fill="#2FA45E"/>
<path d="M228.59 249.504C230.35 249.474 232.27 249.553 233.649 248.357C234.294 247.787 234.845 247.119 235.281 246.376C235.489 246.045 236.096 245.058 235.845 244.665C235.385 243.96 233.294 246.849 233.006 247.119C231.907 248.113 230.569 248.806 229.124 249.13L228.848 249.332C229.874 249.12 230.86 248.743 231.767 248.216C232.993 247.468 233.705 246.376 234.68 245.346C234.894 245.119 235.526 244.371 235.765 244.837C235.925 245.144 235.336 246.113 235.213 246.315C234.794 247.017 234.273 247.654 233.668 248.204C232.27 249.431 230.381 249.382 228.608 249.431L228.59 249.504Z" fill="white"/>
<path d="M227.59 250.853C227.59 250.933 227.621 251.007 227.633 251.086C227.635 251.096 227.639 251.105 227.646 251.113C227.652 251.12 227.661 251.126 227.67 251.129C227.69 251.135 227.711 251.133 227.73 251.126C227.748 251.118 227.764 251.104 227.774 251.086C227.78 251.071 227.78 251.053 227.774 251.037V251.007V250.939C228.13 249.621 228.271 248.241 228.645 246.922C229.019 245.604 229.442 244.42 229.7 243.126C229.859 242.317 230.424 238.22 228.627 238.747C227.83 238.968 227.284 240.121 226.983 240.814C226.589 241.744 226.365 242.737 226.321 243.746C226.174 246.205 227.081 248.468 227.59 250.853Z" fill="#2FA45E"/>
<path d="M227.597 250.553C227.597 250.651 227.597 250.749 227.597 250.853C227.597 250.958 227.597 250.884 227.597 250.896L227.633 251.086C227.633 251.025 227.633 250.964 227.633 250.902C227.633 250.976 227.633 251.05 227.664 251.129C227.684 251.135 227.705 251.133 227.723 251.126C227.742 251.118 227.758 251.104 227.768 251.086C227.768 251.086 227.768 251.031 227.768 251.007V250.909C227.768 250.817 227.768 250.718 227.731 250.62C227.695 250.522 227.701 250.387 227.689 250.277C227.776 248.446 227.995 246.624 228.345 244.825C228.608 243.944 228.73 243.027 228.707 242.108C228.676 241.893 228.621 241.249 228.29 241.225C227.787 241.188 227.394 242.691 227.314 243.003C227.084 243.906 226.987 244.838 227.026 245.769C227.119 247.374 227.309 248.971 227.597 250.553ZM227.222 247.045C227.126 246.204 227.11 245.356 227.173 244.512C227.235 243.752 227.357 242.433 227.873 241.814C228.578 240.961 228.633 242.335 228.615 242.709C228.582 243.197 228.506 243.682 228.388 244.156C228.21 244.997 228.044 245.843 227.928 246.695C227.774 247.756 227.67 248.823 227.621 249.897C227.48 248.946 227.321 247.971 227.222 247.045Z" fill="white"/>
<path d="M226.511 256.342H226.585C228.424 256.25 230.847 256.422 232.368 255.214C233.49 254.318 234.594 252.552 234.244 251.056C233.84 249.369 231.558 251.393 230.951 251.884C229.38 253.252 227.886 254.706 226.474 256.238V256.275C226.431 256.318 226.468 256.33 226.511 256.342Z" fill="#2FA45E"/>
<path d="M226.511 256.342H226.548L226.744 256.293C228.124 255.925 229.602 255.766 230.816 255.005C231.344 254.675 231.814 254.261 232.208 253.779C232.423 253.503 233.104 252.699 232.914 252.301C232.607 251.644 230.546 253.478 230.264 253.693C229.136 254.558 227.964 255.367 226.762 256.146L226.45 256.342C226.431 256.318 226.468 256.33 226.511 256.342ZM226.762 256.189C227.658 255.631 228.529 255.048 229.381 254.429C229.902 254.055 230.411 253.668 230.908 253.264C231.196 253.037 231.479 252.804 231.785 252.601C231.91 252.518 232.039 252.443 232.172 252.374C232.466 252.233 232.589 252.104 232.742 252.344C233.03 252.791 231.951 253.889 231.644 254.183C231.181 254.627 230.646 254.988 230.062 255.251C228.983 255.633 227.881 255.946 226.762 256.189Z" fill="white"/>
<path d="M223.187 252.577C223.662 254.671 224.751 256.576 226.315 258.047H226.352C226.369 258.052 226.387 258.051 226.404 258.045C226.421 258.038 226.435 258.026 226.444 258.01C226.45 258.003 226.456 257.995 226.46 257.986C226.463 257.977 226.465 257.968 226.465 257.958C226.465 257.948 226.463 257.939 226.46 257.93C226.456 257.921 226.45 257.913 226.444 257.906L226.352 257.814C226.045 255.33 225.738 252.859 225.456 250.369C225.395 249.756 224.935 246.039 223.788 246.652C223.077 247.027 223.034 248.56 222.972 249.247C222.87 250.361 222.943 251.485 223.187 252.577Z" fill="#2FA45E"/>
<path d="M223.831 251.828C223.924 252.662 224.102 253.484 224.365 254.282C224.782 255.543 225.392 256.733 226.174 257.808L226.327 258.01C226.327 258.01 226.327 258.047 226.327 258.059C226.34 258.07 226.356 258.075 226.373 258.075C226.39 258.075 226.406 258.07 226.419 258.059L226.309 257.906C226.266 257.74 226.229 257.575 226.186 257.409C225.701 255.447 225.229 253.521 224.923 251.516C224.849 251.025 224.671 249.271 224.224 248.989C223.99 248.848 223.886 249.063 223.825 249.265C223.67 250.113 223.673 250.981 223.831 251.828ZM223.874 250.24C223.874 250.093 223.874 249.817 223.874 249.67C223.874 249.523 223.905 249.093 224.168 249.24C224.432 249.388 224.604 250.332 224.671 250.663C224.831 251.442 224.917 252.233 225.051 253.012C225.324 254.556 225.697 256.08 226.168 257.575C226.168 257.642 226.211 257.71 226.229 257.777L226.161 257.679C224.634 255.503 223.833 252.899 223.874 250.24Z" fill="white"/>
<path d="M226.002 263.407H226.37V262.444C226.415 261.144 226.472 259.844 226.542 258.544C226.585 257.808 226.64 257.072 226.72 256.342C226.72 256.342 226.72 256.293 226.72 256.269V256.091C226.72 256.029 226.72 255.962 226.72 255.894C226.887 254.248 227.311 252.638 227.977 251.123C228.21 250.62 228.461 250.124 228.731 249.639L228.805 249.498V249.461L228.884 249.314C228.907 249.279 228.928 249.242 228.946 249.204C229.792 247.72 230.786 246.297 231.675 244.862C231.938 244.457 232.202 244.04 232.46 243.635L232.509 243.562L232.564 243.47C233.717 241.63 234.852 239.821 236.047 238.036C236.096 237.968 235.986 237.907 235.943 237.975C235.134 239.158 234.3 240.323 233.49 241.495C233.374 241.648 233.269 241.808 233.153 241.961C232.938 242.274 232.717 242.574 232.503 242.887C232.067 243.5 231.638 244.113 231.221 244.757C229.99 246.503 228.865 248.322 227.854 250.203C227.787 250.344 227.719 250.492 227.646 250.633L227.523 250.902L227.382 251.215C226.642 253.049 226.227 254.998 226.155 256.974C226.155 257.109 226.155 257.25 226.155 257.391C226.155 257.532 226.155 257.52 226.155 257.581C226.158 257.616 226.158 257.651 226.155 257.685C226.158 257.73 226.158 257.775 226.155 257.82V257.918V258.274C226.106 259.574 226.069 260.872 226.045 262.168C226.033 262.573 226.014 262.99 226.002 263.407Z" fill="#2FA45E"/>
<path d="M236.912 239.882C237.912 238.539 239.2 235.761 237.722 234.313C237.453 234.036 237.091 233.867 236.705 233.838C236.32 233.81 235.937 233.925 235.63 234.16C234.852 234.724 234.502 235.791 234.251 236.674C233.576 239.023 233.128 241.427 232.282 243.733C232.282 243.733 232.208 243.929 232.19 243.979C232.172 244.028 232.251 244.046 232.27 243.979L232.349 243.752C233.944 242.623 235.729 241.476 236.912 239.882Z" fill="#2FA45E"/>
<path d="M232.263 243.776C232.268 243.781 232.274 243.786 232.28 243.788C232.286 243.791 232.293 243.793 232.3 243.793C232.307 243.793 232.314 243.791 232.32 243.788C232.327 243.786 232.332 243.781 232.337 243.776V243.739L232.374 243.678L232.552 243.543C233.893 242.635 235.026 241.452 235.876 240.072C236.279 239.356 236.539 238.569 236.642 237.754C236.775 237.189 236.68 236.594 236.379 236.098C235.495 235.111 234.778 237.582 234.618 238.091C234.217 239.403 233.736 240.689 233.177 241.942C232.903 242.542 232.592 243.124 232.245 243.684C232.243 243.698 232.243 243.713 232.245 243.727L232.263 243.776ZM232.466 243.623C232.878 242.936 233.244 242.223 233.564 241.489C233.748 241.065 233.919 240.63 234.073 240.195C234.312 239.551 234.52 238.901 234.729 238.244C234.847 237.847 234.986 237.456 235.146 237.073C235.207 236.918 235.281 236.768 235.367 236.625C235.612 236.196 235.735 235.981 236.103 236.049C236.47 236.116 236.618 236.662 236.63 237.165C236.639 237.397 236.627 237.629 236.593 237.858C236.55 238.166 236.483 238.469 236.391 238.766C236.18 239.433 235.872 240.065 235.477 240.642C234.685 241.72 233.734 242.671 232.656 243.463L232.466 243.623Z" fill="white"/>
<path d="M32.1708 234.412C31.9255 236.374 31.5575 238.312 31.1589 240.238C30.932 241.335 30.6989 242.427 30.4782 243.525C30.2328 244.751 29.8649 245.978 30.2022 247.204C30.208 247.261 30.208 247.319 30.2022 247.376C30.186 247.398 30.1642 247.414 30.1392 247.424C30.1142 247.434 30.0869 247.437 30.0604 247.433C30.0338 247.428 30.009 247.417 29.9886 247.399C29.9681 247.382 29.9529 247.359 29.9446 247.333V247.247C29.7647 246.928 29.6227 246.588 29.5214 246.235C29.1435 245.31 28.8179 244.364 28.5463 243.402C27.9627 241.432 27.6289 239.396 27.5528 237.343C27.514 235.51 27.7202 233.681 28.1661 231.903C28.5157 230.487 29.0124 228.365 30.0673 227.279C31.0301 226.292 31.8274 227.892 32.1095 228.665C32.6982 230.474 32.3977 232.559 32.1708 234.412Z" fill="#2FA45E"/>
<path d="M30.4169 230.26C29.7055 230.26 29.1903 232.566 28.9327 233.559C28.5359 235.129 28.33 236.741 28.3195 238.361C28.3297 241.267 28.8294 244.151 29.7974 246.892C29.8342 247.002 29.871 247.112 29.914 247.223V247.253V247.327C29.9232 247.352 29.9386 247.374 29.9587 247.391C29.9789 247.408 30.0031 247.419 30.0289 247.424C30.0548 247.429 30.0816 247.427 30.1065 247.419C30.1315 247.41 30.1539 247.396 30.1715 247.376C30.1286 247.131 30.0918 246.898 30.0612 246.659C30.0305 246.419 30.0121 246.223 29.9998 246.008C29.8998 243.647 30.0457 241.281 30.4352 238.95C30.8155 236.221 31.3613 230.266 30.4169 230.26ZM29.9017 246.468C29.9385 246.787 29.9876 247.082 30.0489 247.413C29.9753 247.186 29.9017 246.959 29.8342 246.726C29.0505 244.289 28.5988 241.758 28.4912 239.201C28.4087 236.981 28.701 234.762 29.3559 232.639C29.4601 232.332 29.9692 230.401 30.4169 230.499C30.7296 230.566 30.7971 232.302 30.8032 232.339C30.8032 232.688 30.8032 233.038 30.8032 233.387C30.8032 234.105 30.748 234.822 30.6867 235.534C30.5518 237.085 30.3249 238.631 30.1409 240.176C29.8153 242.257 29.735 244.369 29.9017 246.468Z" fill="white"/>
<path d="M43.406 239.821C42.0997 242.378 39.8919 244.334 37.6105 246.009C36.384 246.91 35.1268 247.75 33.888 248.615C32.735 249.322 31.6563 250.144 30.6683 251.068C30.6242 251.11 30.5832 251.155 30.5456 251.203C30.2906 251.485 30.0665 251.793 29.8772 252.123C29.8709 252.134 29.862 252.143 29.8513 252.149C29.8405 252.156 29.8283 252.159 29.8158 252.16C29.8052 252.2 29.7909 252.239 29.7729 252.276C29.7729 252.276 29.7177 252.276 29.7238 252.276C29.73 252.276 29.7238 252.19 29.7238 252.147C29.7146 252.133 29.7097 252.116 29.7097 252.098C29.7097 252.081 29.7146 252.064 29.7238 252.049C29.7227 252.035 29.7227 252.021 29.7238 252.006V251.884C30.0979 248.891 32.1769 245.874 33.9493 243.574C35.7216 241.274 37.8988 239.238 40.6278 238.189C41.3147 237.926 42.8724 237.196 43.5715 237.754C44.2707 238.312 43.6881 239.281 43.406 239.821Z" fill="#2FA45E"/>
<path d="M41.3822 239.833C40.7689 239.22 38.9291 240.747 38.4692 241.102C37.1028 242.218 35.8348 243.449 34.6791 244.782C32.7065 246.848 31.0716 249.211 29.8343 251.786C29.8158 251.814 29.7953 251.84 29.773 251.865C29.7704 251.908 29.7704 251.951 29.773 251.994C29.7698 252.008 29.7698 252.023 29.773 252.037C29.7609 252.05 29.7542 252.068 29.7542 252.086C29.7542 252.104 29.7609 252.122 29.773 252.135C29.8036 252.098 29.8281 252.061 29.8588 252.031C30.0919 251.749 30.331 251.473 30.5763 251.209L30.699 251.074C32.48 249.288 34.3727 247.616 36.3656 246.07C37.7375 244.964 39.0023 243.732 40.1434 242.39C40.3948 242.071 41.9096 240.354 41.3822 239.833ZM40.8119 241.225C39.2664 243.788 36.5864 245.665 34.3112 247.529C32.7539 248.756 31.3165 250.128 30.0183 251.626C31.2236 249.337 32.7292 247.219 34.4952 245.328C35.4559 244.213 36.4797 243.155 37.5615 242.157C38.1376 241.614 38.7525 241.114 39.4013 240.661C39.795 240.386 40.2189 240.158 40.6647 239.98C41.5539 239.698 41.0756 240.759 40.8119 241.225Z" fill="white"/>
<path d="M29.4602 258.231C29.4474 258.254 29.4289 258.274 29.4063 258.288C29.3837 258.302 29.3579 258.31 29.3314 258.311V258.354C29.3354 258.358 29.3387 258.362 29.3409 258.368C29.3431 258.373 29.3443 258.379 29.3443 258.384C29.3443 258.39 29.3431 258.396 29.3409 258.401C29.3387 258.406 29.3354 258.411 29.3314 258.415C29.3273 258.42 29.3222 258.424 29.3164 258.427C29.3105 258.43 29.3041 258.431 29.2976 258.431C29.2911 258.431 29.2847 258.43 29.2789 258.427C29.273 258.424 29.2679 258.42 29.2639 258.415C26.8108 255.962 24.511 252.957 23.3029 249.694C22.7837 248.32 22.4917 246.87 22.4382 245.401C22.4382 244.396 22.3584 242.372 23.217 241.642C24.9526 240.17 26.5287 246.413 26.7617 247.358C27.191 249.075 27.4731 250.823 27.8718 252.546C28.3011 254.435 28.8714 256.287 29.4418 258.139C29.4514 258.152 29.458 258.167 29.4612 258.183C29.4644 258.199 29.464 258.215 29.4602 258.231Z" fill="#2FA45E"/>
<path d="M29.4602 258.231C29.3682 258.072 29.2762 257.912 29.1903 257.753C27.7238 255.131 26.6709 252.3 26.0688 249.357C25.8109 247.872 25.4273 246.411 24.9219 244.99C24.7809 244.641 24.3454 243.31 23.7751 243.985C23.4807 244.334 23.726 246.855 23.8426 247.505C24.1357 248.987 24.6073 250.429 25.247 251.798C26.2953 254.104 27.6283 256.269 29.2148 258.243C29.2639 258.305 29.3068 258.366 29.3559 258.421C29.3645 258.412 29.3693 258.4 29.3693 258.387C29.3693 258.375 29.3645 258.363 29.3559 258.354C29.3559 258.354 29.3559 258.354 29.3559 258.311C29.3783 258.306 29.3993 258.297 29.4174 258.283C29.4355 258.269 29.4501 258.251 29.4602 258.231ZM25.9461 252.877C25.2492 251.548 24.6922 250.151 24.2841 248.707C24.1294 248.132 24.0086 247.548 23.9223 246.959C23.8481 246.497 23.8071 246.029 23.7996 245.561C23.7996 244.42 23.9039 244.126 24.094 244.089C24.2841 244.052 24.3761 244.187 24.7073 244.868C24.9142 245.313 25.0764 245.777 25.1918 246.254C25.3696 246.928 25.5229 247.603 25.6701 248.29C25.9645 249.645 26.2405 251.013 26.6391 252.35C27.1941 254.268 28.0026 256.104 29.0431 257.808C27.8767 256.252 26.8408 254.603 25.9461 252.877Z" fill="white"/>
<path d="M37.2303 252.264C36.9443 253.465 36.4025 254.591 35.6419 255.563C34.2069 257.55 32.3671 259.2 30.7971 261.083C30.564 261.365 30.331 261.647 30.1102 261.941C30.1102 261.972 29.9078 262.389 29.9078 262.352C29.9078 262.315 29.9078 262.187 29.9876 261.923C30.239 260.611 31.0608 256.643 32.0911 254.613C32.7095 253.328 33.4796 252.121 34.3847 251.019C34.8324 250.516 35.875 249.431 36.6661 249.664C37.4572 249.897 37.3652 251.614 37.2303 252.264Z" fill="#2FA45E"/>
<path d="M35.9486 251.442C35.1084 250.915 32.9436 254.791 32.6492 255.287C31.5778 257.143 30.7532 259.13 30.1961 261.199C30.1286 261.426 30.0673 261.659 30.006 261.898C29.9447 262.138 29.9263 262.322 29.9263 262.328C29.9263 262.334 30.1102 261.954 30.1286 261.917C30.147 261.88 30.2084 261.813 30.2452 261.763C30.4292 261.524 30.6254 261.285 30.8155 261.058C31.7538 259.648 32.7228 258.256 33.6366 256.821C34.3074 255.798 34.892 254.721 35.3844 253.601C35.4764 253.349 36.3166 251.651 35.9486 251.442ZM35.7094 252.528C34.4829 255.901 32.0727 258.556 30.19 261.549L30.098 261.69C30.098 261.604 30.147 261.512 30.1777 261.426C30.682 259.733 31.3431 258.09 32.1525 256.52C32.6503 255.562 33.2074 254.636 33.8206 253.748C34.1332 253.245 34.4795 252.763 34.857 252.307C35.0287 252.117 35.5255 251.608 35.691 251.694C35.8566 251.779 35.7892 252.307 35.7094 252.528Z" fill="white"/>
<path d="M45.6751 224.434C43.179 230.174 36.617 232.854 33.7776 238.386V238.416C33.6917 238.582 33.612 238.753 33.5323 238.931C33.5242 238.949 33.5121 238.963 33.4969 238.975C33.4818 238.986 33.464 238.994 33.4453 238.997C33.4266 239 33.4074 238.998 33.3894 238.992C33.3714 238.986 33.3552 238.976 33.3421 238.962C33.3312 238.948 33.3253 238.931 33.3253 238.913C33.3253 238.895 33.3312 238.878 33.3421 238.864C33.3588 238.821 33.3794 238.78 33.4035 238.741C33.961 235.208 35.1492 231.803 36.9114 228.69C38.3465 226.04 40.3151 223.563 43.0441 222.171C43.7126 221.827 45.025 221.097 45.7732 221.668C46.5214 222.238 45.9817 223.728 45.6751 224.434Z" fill="#2FA45E"/>
<path d="M43.4244 224.667C43.1055 224.427 42.6271 224.716 42.3512 224.857C41.66 225.214 41.0153 225.655 40.4316 226.169C39.2512 227.211 38.2323 228.422 37.4082 229.763C35.9286 232.016 34.7319 234.442 33.8451 236.987C33.655 237.601 33.4832 238.152 33.3483 238.741C33.3483 238.815 33.3483 238.888 33.2993 238.956C33.31 238.971 33.3243 238.983 33.3408 238.992C33.3573 239.001 33.3757 239.005 33.3943 239.005C33.4129 239.005 33.4313 239.001 33.4478 238.992C33.4644 238.983 33.4786 238.971 33.4894 238.956C33.563 238.784 33.6427 238.625 33.7285 238.453C33.7285 238.453 33.7285 238.453 33.7285 238.41C34.2261 237.246 34.8383 236.135 35.5561 235.092C36.707 233.536 37.9565 232.055 39.2971 230.658C39.8184 230.112 44.5283 225.488 43.4244 224.667ZM43.0258 225.991C42.171 227.293 41.1778 228.497 40.0637 229.585C39.0211 230.75 37.9724 231.891 36.9544 233.068C36.1419 233.999 35.4114 234.998 34.7711 236.055C34.2295 236.931 33.7696 237.855 33.3974 238.815C33.6664 237.839 33.9941 236.881 34.3786 235.945C34.3786 235.945 34.3786 235.945 34.3786 235.914C35.0935 234.253 35.9128 232.639 36.8317 231.081C36.8317 231.081 36.8317 231.045 36.8317 231.026C37.5946 229.632 38.5233 228.334 39.5976 227.163C40.1885 226.534 40.8489 225.974 41.5662 225.495C42.388 224.961 43.1055 224.611 43.314 224.881C43.5225 225.151 43.2527 225.617 43.0258 226.01V225.991Z" fill="white"/>
<path d="M36.9482 231.167C36.1939 232.786 35.4764 234.424 34.7711 236.073C34.4338 236.846 34.1026 237.619 33.7715 238.386C33.7715 238.386 33.7715 238.416 33.7715 238.428L33.4096 239.269C32.2246 241.773 31.2442 244.37 30.4782 247.033C30.1387 248.441 29.9334 249.878 29.8649 251.326C29.8649 251.473 29.8649 251.626 29.8649 251.773C29.8649 251.853 29.8649 251.939 29.8649 252.019V252.154C29.8158 253.411 29.8649 254.68 29.8649 255.907C29.8649 257.618 30.0428 259.323 30.2083 261.015C30.2025 261.066 30.2025 261.118 30.2083 261.169V261.396C30.2053 261.436 30.2053 261.477 30.2083 261.518V261.733C30.2635 262.279 30.3126 262.824 30.3555 263.376H29.8342C29.5064 261.707 29.3014 260.016 29.221 258.317C29.218 258.282 29.218 258.247 29.221 258.213C29.221 258.053 29.221 257.881 29.221 257.722C29.221 257.563 29.221 257.317 29.221 257.109C29.221 256.618 29.1903 256.134 29.1842 255.649C29.0536 252.814 29.2594 249.973 29.7975 247.186L29.8526 246.959C29.8497 246.926 29.8497 246.894 29.8526 246.861L29.8894 246.695L29.9569 246.438C29.9998 246.284 30.0428 246.131 30.0918 245.978L30.1286 245.843C30.9335 243.458 31.8985 241.131 33.0171 238.876C33.2073 238.459 33.4035 238.048 33.5936 237.65L33.9248 236.963L34.4338 235.939C34.4338 235.939 34.4338 235.939 34.4338 235.908C35.2311 234.295 36.0651 232.694 36.8869 231.075C36.8562 231.032 36.985 231.088 36.9482 231.167Z" fill="#2FA45E"/>
<path d="M147.104 264.382H228.191C228.191 264.382 228.492 254.496 225.628 250.933C222.764 247.37 219.998 246.481 219.066 245.708C216.845 243.561 214.794 241.244 212.933 238.778C210.842 235.994 207.825 231.811 206.273 231.419C204.721 231.026 197.601 229.475 196.129 230.094C194.658 230.713 186.697 237.932 185.845 238.244C184.992 238.557 169.642 246.309 168.244 246.61C166.846 246.91 158.891 249.253 155.365 251.399C150.588 254.343 147.104 264.382 147.104 264.382Z" fill="#DBDBDB"/>
<path opacity="0.1" d="M147.104 264.382H228.191C228.191 264.382 228.492 254.496 225.628 250.933C222.764 247.37 219.998 246.481 219.066 245.708C216.845 243.561 214.794 241.244 212.933 238.778C210.842 235.994 207.825 231.811 206.273 231.419C204.721 231.026 197.601 229.475 196.129 230.094C194.658 230.713 186.697 237.932 185.845 238.244C184.992 238.557 169.642 246.309 168.244 246.61C166.846 246.91 158.891 249.253 155.365 251.399C150.588 254.343 147.104 264.382 147.104 264.382Z" fill="black"/>
<path d="M170.985 245.444C174.542 245.647 179.816 249.59 180.865 250.197C182.398 251.086 191.628 247.867 195.271 247.48C198.914 247.094 200.067 241.44 199.846 240.532C199.625 239.624 203.826 237.993 203.305 235.81C202.998 234.534 193.523 231.989 193.523 231.989C190.616 234.338 186.452 238.03 185.845 238.251C185.238 238.471 175.818 243.2 170.985 245.444Z" fill="#DBDBDB"/>
<path d="M209.401 245.72C209.333 244.218 205.335 241.624 204.292 241.863C203.25 242.102 201.226 244.255 200.919 245.095C200.613 245.935 199.294 250.001 200.576 250.032C201.857 250.062 204.292 247.732 205.629 247.646C206.966 247.56 209.462 246.959 209.401 245.72Z" fill="#DBDBDB"/>
<path d="M179.356 251.528C179.608 250.59 175.898 248.762 174.935 248.934C173.972 249.106 173.04 251.086 173.892 251.608C174.745 252.129 175.996 251.393 176.646 251.608C177.296 251.822 179.16 252.264 179.356 251.528Z" fill="#DBDBDB"/>
<path d="M91.1493 263.812H10.4977C10.4977 263.812 14.2816 258.513 18.4703 257.379C22.659 256.244 32.0911 252.84 33.8021 250.945C35.5132 249.05 49.8822 242.053 55.371 242.243C60.8597 242.433 69.9362 248.676 71.2609 250.216C72.5855 251.755 77.2219 257.403 78.7305 257.875C80.2392 258.348 87.4206 259.458 91.1493 263.812Z" fill="#DBDBDB"/>
<path opacity="0.1" d="M91.1493 263.812H10.4977C10.4977 263.812 14.2816 258.513 18.4703 257.379C22.659 256.244 32.0911 252.84 33.8021 250.945C35.5132 249.05 49.8822 242.053 55.371 242.243C60.8597 242.433 69.9362 248.676 71.2609 250.216C72.5855 251.755 77.2219 257.403 78.7305 257.875C80.2392 258.348 87.4206 259.458 91.1493 263.812Z" fill="black"/>
<path d="M26.357 254.938C27.8856 255.267 29.4491 255.405 31.0117 255.349C31.6618 255.275 37.9847 252.172 40.309 251.859C42.6333 251.546 55.236 251.007 56.1559 249.621C56.8489 248.578 52.0409 245.291 48.8764 243.58C42.6026 245.671 34.9857 249.596 33.7715 250.939C32.8945 251.908 29.9692 253.282 26.7618 254.539L26.357 254.938Z" fill="#DBDBDB"/>
<path d="M47.472 254.57C47.472 253.871 43.2895 253.343 42.3205 253.497C41.3515 253.65 37.2058 255.447 38.0276 255.79C39.338 256.219 40.7175 256.395 42.0936 256.312C43.4428 256.207 47.4659 255.33 47.472 254.57Z" fill="#DBDBDB"/>
<path d="M232.901 266.136H254.213C256.506 266.136 251.594 259.041 249.582 258.004C247.571 256.968 242.327 257.556 240.997 258.697C239.666 259.838 234.251 263.468 233.57 264.076C233.297 264.337 233.093 264.662 232.976 265.022C232.86 265.381 232.834 265.764 232.901 266.136Z" fill="#DBDBDB"/>
<path d="M6.43787 63.3757C6.27842 61.775 5.16839 60.1744 3.23045 60.1744C1.29251 60.1744 0.164084 61.775 0.0230309 63.3757C-0.216146 65.8288 1.44582 68.0979 3.23045 70.1217C5.01508 68.0979 6.70158 65.8288 6.43787 63.3757ZM3.23045 65.1542C2.88487 65.1529 2.54735 65.0496 2.26027 64.8572C1.97319 64.6648 1.74935 64.3919 1.61684 64.0727C1.48434 63.7535 1.44907 63.4023 1.51547 63.0632C1.58188 62.724 1.74699 62.4121 1.99008 62.1664C2.23318 61.9208 2.54342 61.7525 2.88186 61.6825C3.2203 61.6126 3.57185 61.6442 3.89239 61.7734C4.21292 61.9026 4.48815 62.1236 4.68353 62.4086C4.8789 62.6937 4.98571 63.0301 4.99054 63.3757C4.99464 63.6088 4.95205 63.8404 4.86528 64.0568C4.77851 64.2732 4.64931 64.4701 4.4853 64.6358C4.32128 64.8016 4.12576 64.9328 3.91026 65.0218C3.69475 65.1108 3.46361 65.1558 3.23045 65.1542Z" fill="#FE2222"/>
<path d="M147.301 112.824C147.135 111.223 146.031 109.623 144.087 109.623C142.143 109.623 141.021 111.223 140.886 112.824C140.64 115.277 142.309 117.546 144.087 119.57C145.872 117.546 147.546 115.302 147.301 112.824ZM144.075 114.609C143.727 114.607 143.387 114.503 143.099 114.309C142.81 114.115 142.585 113.839 142.453 113.518C142.321 113.196 142.287 112.842 142.355 112.501C142.424 112.16 142.592 111.847 142.839 111.602C143.085 111.356 143.399 111.189 143.74 111.122C144.081 111.054 144.435 111.09 144.756 111.223C145.077 111.356 145.352 111.582 145.545 111.871C145.738 112.161 145.841 112.501 145.841 112.848C145.842 113.08 145.797 113.31 145.708 113.524C145.62 113.739 145.489 113.933 145.325 114.097C145.161 114.261 144.966 114.39 144.751 114.478C144.537 114.566 144.307 114.61 144.075 114.609Z" fill="#FE2222"/>
<path d="M198.509 41.0341C198.349 39.4273 197.246 37.8328 195.301 37.8328C193.357 37.8328 192.235 39.4273 192.1 41.0341C191.855 43.4872 193.523 45.7502 195.301 47.7801C197.086 45.7502 198.76 43.5056 198.509 41.0341ZM195.301 42.8126C194.955 42.8114 194.617 42.7076 194.329 42.5145C194.042 42.3213 193.818 42.0473 193.686 41.727C193.554 41.4068 193.52 41.0546 193.588 40.715C193.656 40.3753 193.822 40.0633 194.067 39.8184C194.312 39.5735 194.624 39.4066 194.964 39.3387C195.304 39.2708 195.656 39.305 195.976 39.437C196.296 39.569 196.57 39.7929 196.763 40.0804C196.957 40.3679 197.06 40.7061 197.062 41.0525C197.062 41.2839 197.017 41.5131 196.929 41.727C196.841 41.9409 196.711 42.1353 196.548 42.2989C196.384 42.4625 196.19 42.5921 195.976 42.6803C195.762 42.7684 195.533 42.8134 195.301 42.8126Z" fill="#FE2222"/>
<path d="M62.442 92.1995C62.2764 90.5927 61.1725 88.9982 59.2284 88.9982C57.2843 88.9982 56.1621 90.5927 56.0271 92.1995C55.7818 94.6526 57.4499 96.9156 59.2284 98.9455C61.0131 96.9156 62.6873 94.6526 62.442 92.1995ZM59.5841 93.9473C59.2137 94.023 58.8288 93.9774 58.4864 93.8173C58.1439 93.6572 57.8621 93.391 57.6826 93.0583C57.5032 92.7256 57.4357 92.3439 57.49 91.9698C57.5444 91.5956 57.7178 91.249 57.9845 90.9811C58.2512 90.7131 58.5971 90.5382 58.971 90.4822C59.3448 90.4262 59.7268 90.492 60.0604 90.67C60.3939 90.8479 60.6613 91.1285 60.8229 91.4703C60.9846 91.812 61.0319 92.1967 60.9579 92.5675C60.8908 92.9075 60.7245 93.2199 60.48 93.4655C60.2356 93.7111 59.9238 93.8788 59.5841 93.9473Z" fill="#FE2222"/>
<path d="M270.955 85.7908C270.789 84.184 269.685 82.5895 267.741 82.5895C265.797 82.5895 264.675 84.184 264.54 85.7908C264.295 88.2439 265.963 90.5069 267.741 92.5368C269.526 90.5069 271.2 88.2623 270.955 85.7908ZM267.741 87.5693C267.395 87.5669 267.057 87.4619 266.77 87.2677C266.483 87.0736 266.261 86.7988 266.13 86.4781C265.999 86.1574 265.966 85.8051 266.035 85.4657C266.104 85.1263 266.272 84.8149 266.518 84.5708C266.763 84.3267 267.076 84.1609 267.416 84.0942C267.756 84.0275 268.108 84.063 268.428 84.1961C268.747 84.3292 269.021 84.554 269.213 84.8422C269.405 85.1303 269.508 85.4689 269.508 85.8153C269.509 86.0472 269.465 86.277 269.376 86.4913C269.288 86.7057 269.158 86.9003 268.993 87.0636C268.829 87.227 268.633 87.3558 268.418 87.4427C268.203 87.5295 267.973 87.5726 267.741 87.5693Z" fill="#FE2222"/>
<path d="M3.2979 69.4348H2.07135V70.0481H3.2979V69.4348Z" fill="#FE2222"/>
<path d="M154.5 122.783H153.887V122.17H154.5C155.084 122.17 155.667 122.121 156.242 122.023L156.346 122.636C155.736 122.737 155.119 122.787 154.5 122.783ZM151.434 122.783H148.981V122.17H151.434V122.783ZM146.528 122.783H144.075V122.17H146.528V122.783ZM141.622 122.783H139.169V122.17H141.622V122.783ZM136.716 122.783H134.262V122.17H136.716V122.783ZM131.809 122.783C130.97 122.787 130.132 122.694 129.313 122.507L129.454 121.894C130.21 122.071 130.984 122.16 131.76 122.158L131.809 122.783ZM158.701 121.913L158.462 121.348C159.189 121.037 159.876 120.642 160.511 120.171L160.879 120.662C160.222 121.159 159.51 121.579 158.757 121.913H158.701ZM127.007 121.637C126.257 121.262 125.553 120.801 124.91 120.263L125.303 119.791C125.911 120.299 126.575 120.735 127.283 121.091L127.007 121.637ZM162.761 118.92L162.289 118.527C162.799 117.921 163.237 117.259 163.595 116.553L164.141 116.829C163.767 117.584 163.304 118.293 162.761 118.938V118.92ZM123.181 118.441C122.677 117.772 122.255 117.045 121.923 116.277L122.481 116.031C122.799 116.755 123.199 117.44 123.671 118.074L123.181 118.441ZM165 114.467L164.386 114.326C164.566 113.558 164.656 112.772 164.656 111.984H165.27C165.277 112.825 165.186 113.665 165 114.486V114.467ZM121.2 113.854C121.089 113.233 121.033 112.603 121.034 111.971C121.034 111.775 121.034 111.579 121.034 111.389L121.647 111.352C121.647 111.561 121.647 111.763 121.647 111.965C121.649 112.561 121.7 113.156 121.801 113.744L121.2 113.854ZM165.288 109.518H164.675V107.065H165.288V109.518ZM120.611 109.058C120.382 108.299 120.068 107.569 119.673 106.881L120.2 106.575C120.623 107.301 120.959 108.075 121.2 108.881L120.611 109.058ZM118.256 104.986C117.703 104.413 117.085 103.904 116.416 103.471L116.747 102.956C117.451 103.415 118.098 103.957 118.673 104.569L118.256 104.986ZM165.288 104.631H164.675V102.177H165.288V104.631ZM114.319 102.411C113.576 102.142 112.804 101.961 112.019 101.871L112.086 101.258C112.924 101.348 113.748 101.539 114.54 101.828L114.319 102.411ZM109.609 101.797H107.156V101.184H109.609V101.797ZM104.703 101.797H102.25V101.184H104.703V101.797ZM99.7965 101.797H97.3434V101.184H99.7965V101.797ZM94.8903 101.797H92.4372V101.184H94.8903V101.797ZM89.9841 101.797H87.531V101.184H89.9841V101.797ZM85.0779 101.797H82.6248V101.184H85.0779V101.797ZM80.1717 101.797H77.7187V101.184H80.1717V101.797ZM75.2656 101.797H72.8125V101.184H75.2656V101.797ZM70.3594 101.797H67.9063V101.184H70.3594V101.797ZM65.4532 101.797H63.0001V101.184H65.4532V101.797ZM60.547 101.797C59.7168 101.758 58.8937 101.625 58.0939 101.399L58.2595 100.785C59.0209 101.002 59.8052 101.127 60.596 101.159L60.547 101.797ZM55.7512 100.436C55.0199 100.025 54.3387 99.5314 53.7213 98.9639L54.1383 98.5101C54.7194 99.0474 55.3616 99.5147 56.0517 99.9022L55.7512 100.436ZM165.128 99.7428H164.515V97.2897H165.128V99.7428ZM52.2433 97.1057C51.7726 96.4095 51.3856 95.6602 51.0903 94.8734L51.6607 94.6587C51.9443 95.3987 52.3105 96.1044 52.7523 96.7623L52.2433 97.1057ZM165.288 94.8979H164.675V92.4448H165.288V94.8979ZM264.693 93.5916H262.24V92.9784H264.693V93.5916ZM259.787 93.5916H257.334V92.9784H259.787V93.5916ZM254.881 93.5916H252.428V92.9784H254.881V93.5916ZM249.975 93.5916H247.522V92.9784H249.975V93.5916ZM245.069 93.5916H242.616V92.9784H245.069V93.5916ZM240.162 93.5916H237.709V92.9784H240.162V93.5916ZM235.256 93.5916C234.424 93.5423 233.6 93.394 232.803 93.1501L232.981 92.5368C233.736 92.7696 234.517 92.9117 235.305 92.96L235.256 93.5916ZM50.3973 92.4632C50.3409 92.0095 50.3122 91.5528 50.3115 91.0956V89.9856H50.9247V91.0956C50.9254 91.5263 50.9541 91.9565 51.0106 92.3835L50.3973 92.4632ZM230.491 92.1443C229.767 91.7201 229.094 91.2138 228.486 90.6357L228.909 90.1941C229.481 90.7402 230.115 91.2177 230.798 91.6169L230.491 92.1443ZM165.288 89.9917H164.675V87.5386H165.288V89.9917ZM226.971 88.6671C226.512 87.9633 226.137 87.2078 225.855 86.4163L226.431 86.214C226.699 86.9591 227.05 87.671 227.48 88.3359L226.971 88.6671ZM51.0106 87.5018H50.3973V85.0487H51.0106V87.5018ZM165.288 85.1039H164.675V82.6508H165.288V85.1039ZM225.297 83.9694C225.255 83.5803 225.234 83.1893 225.235 82.798V81.4918H225.849V82.798C225.849 83.1667 225.867 83.5351 225.904 83.9019L225.297 83.9694ZM50.244 82.6692C50.1218 81.8791 49.9372 81.0998 49.692 80.3388L50.3053 80.1487C50.5579 80.9506 50.7486 81.7707 50.8757 82.6018L50.244 82.6692ZM165.3 80.2162H164.687V77.7631H165.3V80.2162ZM225.861 79.0509H225.248V76.5978H225.861V79.0509ZM48.7783 78.131C48.415 77.42 47.9924 76.741 47.5149 76.1011L48.0117 75.7331C48.5035 76.4032 48.9423 77.1106 49.3241 77.8489L48.7783 78.131ZM165.3 75.3284H164.687V72.8753H165.3V75.3284ZM45.9511 74.2919C45.3791 73.7351 44.7639 73.2245 44.1113 72.7649L44.467 72.262C45.1458 72.7423 45.7855 73.2754 46.3804 73.8565L45.9511 74.2919ZM225.861 74.1631H225.248V71.71H225.861V74.1631ZM42.0384 71.5445C41.3232 71.1946 40.5807 70.9034 39.8184 70.6736L39.9962 70.0603C40.7914 70.302 41.5665 70.6055 42.3144 70.968L42.0384 71.5445ZM165.306 70.4406H164.693V67.9875H165.306V70.4406ZM37.494 70.1707C36.8492 70.09 36.1999 70.049 35.55 70.0481H35.09V69.4348H35.5254C36.2001 69.4345 36.874 69.4776 37.5431 69.5636L37.494 70.1707ZM32.6492 70.0481H30.1961V69.4348H32.6492V70.0481ZM27.743 70.0481H25.2899V69.4348H27.743V70.0481ZM22.8368 70.0481H20.3837V69.4348H22.8368V70.0481ZM17.9306 70.0481H15.4775V69.4348H17.9306V70.0481ZM13.0244 70.0481H10.5713V69.4348H13.0244V70.0481ZM8.11825 70.0481H5.66516V69.4348H8.11825V70.0481ZM225.781 69.2753H225.168V66.8223H225.781V69.2753ZM165.227 65.5589H164.613C164.634 64.7354 164.723 63.915 164.877 63.1058L165.49 63.2162C165.363 63.9906 165.297 64.774 165.294 65.5589H165.227ZM225.088 64.4182C225.006 63.6245 224.858 62.8389 224.647 62.0694L225.26 61.9038C225.475 62.7083 225.627 63.5285 225.714 64.3569L225.088 64.4182ZM166.116 60.8735L165.539 60.665C165.827 59.8836 166.178 59.1268 166.588 58.402L167.122 58.7025C166.754 59.4011 166.44 60.1269 166.183 60.8735H166.116ZM223.837 59.8187C223.5 59.095 223.108 58.398 222.666 57.7335L223.175 57.3901C223.641 58.0822 224.051 58.8102 224.401 59.5672L223.837 59.8187ZM168.465 56.7523L167.986 56.366C168.507 55.7176 169.079 55.1125 169.697 54.5568L170.108 55.0167C169.537 55.543 169.01 56.1152 168.532 56.7278L168.465 56.7523ZM221.176 55.8937C220.627 55.3107 220.033 54.7733 219.397 54.2869L219.771 53.8025C220.428 54.3081 221.044 54.866 221.611 55.4706L221.176 55.8937ZM172.077 53.5633L171.746 53.0481C172.446 52.5998 173.183 52.2101 173.947 51.8829L174.187 52.4471C173.454 52.7603 172.748 53.1337 172.077 53.5633ZM217.459 52.9868C216.754 52.6105 216.02 52.2906 215.264 52.0301L215.46 51.4536C216.249 51.7199 217.014 52.0523 217.747 52.4471L217.459 52.9868ZM176.456 51.6805L176.308 51.0673C177.114 50.8668 177.934 50.7335 178.762 50.6686L178.811 51.2819C178.017 51.3446 177.23 51.4697 176.456 51.656V51.6805ZM212.945 51.4475C212.159 51.3175 211.363 51.2518 210.566 51.2512V50.638C211.398 50.6366 212.229 50.7063 213.05 50.8465L212.945 51.4475ZM208.119 51.2512H205.666V50.638H208.119V51.2512ZM203.213 51.2512H200.76V50.638H203.213V51.2512ZM198.307 51.2512H195.853V50.638H198.307V51.2512ZM193.4 51.2512H190.947V50.638H193.4V51.2512ZM188.494 51.2512H186.041V50.638H188.494V51.2512ZM183.588 51.2512H181.135V50.638H183.588V51.2512Z" fill="black"/>
<path d="M268.465 92.9661H267.239V93.5794H268.465V92.9661Z" fill="#FE2222"/>
<path d="M135.415 99.3258C135.041 99.939 98.0058 106.164 96.1659 105.869C96.0779 105.853 95.9917 105.828 95.9084 105.796C93.5902 105.035 82.306 96.9585 81.4474 96.2717C79.3316 94.5729 85.4521 80.0629 87.6476 77.5239C89.1133 75.8313 92.0999 74.8746 92.0999 74.8746C92.0999 74.8746 97.6807 48.9454 102.354 43.0886C103.531 41.6167 126.548 38.2867 130.902 39.6604C132.742 40.2737 137.593 44.1128 137.807 44.8855C138.083 46.0262 135.79 98.7002 135.415 99.3258Z" fill="#37474F"/>
<path d="M135.415 99.3258C135.041 99.939 98.0057 106.164 96.1659 105.869C96.0779 105.853 95.9917 105.828 95.9083 105.796C98.294 95.7197 109.529 48.4241 109.971 48.0745C110.412 47.7249 132.478 45.1615 137.807 44.8916C138.083 46.0262 135.789 98.7002 135.415 99.3258Z" fill="#455A64"/>
<path d="M138.672 37.1828C138.506 40.5496 137.341 43.2603 135.967 43.524V43.5547L104.758 46.3021L105.371 33.3375L135.839 30.6575C135.989 30.598 136.15 30.5709 136.311 30.5778C136.366 30.5715 136.421 30.5715 136.476 30.5778H136.587C137.899 31.0194 138.819 33.8282 138.672 37.1828Z" fill="#2FA45E"/>
<path opacity="0.1" d="M138.672 37.1828C138.506 40.5496 137.341 43.2603 135.967 43.524V43.5547L104.758 46.3021L105.371 33.3375L135.839 30.6575C135.989 30.598 136.15 30.5709 136.311 30.5778C136.366 30.5715 136.421 30.5715 136.476 30.5778H136.587C137.899 31.0194 138.819 33.8282 138.672 37.1828Z" fill="black"/>
<path d="M107.731 39.9463C107.896 36.3633 106.833 33.4037 105.358 33.3359C103.883 33.2681 102.554 36.1179 102.389 39.7009C102.225 43.284 103.287 46.2436 104.762 46.3114C106.237 46.3791 107.567 43.5294 107.731 39.9463Z" fill="#2FA45E"/>
<path d="M85.1086 92.9907C85.1086 92.9907 85.5808 95.5235 87.347 96.3453C88.5473 96.8482 89.8556 97.0382 91.1493 96.8972L94.694 83.4052L101.317 68.9258C101.317 68.9258 98.3614 66.5095 97.6378 66.442C96.3515 66.5015 95.0697 66.6346 93.7987 66.8407C93.7987 66.8407 90.671 80.5903 90.4993 80.946C90.3275 81.3017 85.1086 92.9907 85.1086 92.9907Z" fill="#EBEBEB"/>
<path d="M93.7864 66.8407C94.0562 67.736 96.3008 68.8583 97.0183 69.0607C98.2256 69.1955 99.4411 69.2406 100.655 69.1956L99.9988 71.8327L101.33 68.9258C101.33 68.9258 98.3001 66.4298 97.65 66.442C96.9999 66.4543 93.7864 66.8407 93.7864 66.8407Z" fill="#DBDBDB"/>
<path d="M87.9971 78.7934C89.1501 79.8782 90.3798 80.8784 91.6768 81.7861C93.1731 82.7367 99.0912 83.4174 99.0912 83.4174L94.2648 102.147C94.2648 102.147 89.4199 100.988 86.0592 98.7493C84.0108 97.3817 81.8889 94.4012 81.8889 94.4012C81.8889 94.4012 83.3669 88.2684 84.1335 86.3305C84.9001 84.3925 87.9971 78.7934 87.9971 78.7934Z" fill="#455A64"/>
<path d="M171.844 172.538L143.511 173.152C143.511 173.152 143.83 158.807 143.596 157.507C143.302 155.851 114.509 93.3218 114.509 93.3218H141.383C141.383 93.3218 169.759 145.174 170.574 152.196C171.519 160.273 171.844 172.538 171.844 172.538Z" fill="#FFBDA7"/>
<path d="M138.745 154.661C138.745 154.661 168.722 146.26 169.225 145.879C169.728 145.499 141.383 93.2789 141.383 93.2789H114.509L138.745 154.661Z" fill="#37474F"/>
<path d="M139.911 148.148C147.963 145.444 156.132 143.046 164.38 141.022C164.401 141.016 164.423 141.018 164.442 141.027C164.461 141.037 164.475 141.054 164.481 141.074C164.488 141.095 164.486 141.117 164.476 141.136C164.467 141.155 164.45 141.169 164.429 141.176C156.383 143.905 148.208 146.272 139.966 148.326C139.954 148.33 139.942 148.331 139.93 148.33C139.918 148.329 139.906 148.325 139.895 148.32C139.884 148.314 139.874 148.306 139.867 148.297C139.859 148.287 139.853 148.277 139.849 148.265C139.846 148.253 139.844 148.241 139.846 148.229C139.847 148.217 139.85 148.205 139.856 148.194C139.862 148.183 139.869 148.174 139.879 148.166C139.888 148.158 139.899 148.152 139.911 148.148Z" fill="#263238"/>
<path d="M137.016 93.285L135.09 145.401L114.509 93.2728L137.016 93.285Z" fill="#263238"/>
<path d="M189.083 248.308C187.525 248.756 143.701 246.965 142.045 245.855C141.597 245.549 141.53 232.976 141.622 225.728C141.584 224.656 141.853 223.596 142.396 222.672C142.939 221.748 143.734 220.997 144.688 220.509C149.889 218.221 162.087 217.73 167.379 221.281C168.728 222.183 170.01 227.224 170.01 227.224L169.673 232.363C169.673 232.363 186.158 240.563 187.807 241.985C189.457 243.408 190.635 247.861 189.083 248.308Z" fill="#C7C7C7"/>
<path d="M189.212 248.376C187.654 248.823 143.554 247.02 141.916 245.892C141.156 245.371 141.149 235.975 141.352 226.065L170.041 227.156L169.697 232.326C169.697 232.326 186.256 240.569 187.936 241.998C189.616 243.427 190.776 247.922 189.212 248.376Z" fill="#FE2222"/>
<path d="M188.654 246.585C181.27 246.131 151.434 244.843 144.075 244.905C144.013 244.905 144.013 244.941 144.075 244.948C151.385 245.591 181.221 246.603 188.623 246.677C188.807 246.708 188.807 246.591 188.654 246.585Z" fill="#263238"/>
<path d="M170.807 230.726C167.919 230.063 164.344 230.364 162.038 232.345C161.946 232.424 162.038 232.547 162.154 232.523C164.971 231.737 167.864 231.258 170.783 231.094C170.832 231.097 170.88 231.081 170.917 231.048C170.953 231.016 170.976 230.971 170.979 230.922C170.982 230.873 170.966 230.825 170.934 230.788C170.902 230.751 170.856 230.729 170.807 230.726Z" fill="#263238"/>
<path d="M172.856 232.075C169.967 231.413 166.392 231.713 164.086 233.694C163.994 233.774 164.086 233.896 164.202 233.872C167.02 233.089 169.912 232.61 172.831 232.443C172.88 232.446 172.928 232.43 172.965 232.398C173.002 232.365 173.024 232.32 173.027 232.271C173.031 232.222 173.014 232.174 172.982 232.137C172.95 232.101 172.905 232.078 172.856 232.075Z" fill="#263238"/>
<path d="M174.904 233.424C172.016 232.762 168.44 233.068 166.134 235.049C166.042 235.123 166.134 235.252 166.251 235.227C169.067 234.44 171.96 233.959 174.88 233.792C174.928 233.795 174.976 233.779 175.013 233.747C175.05 233.715 175.073 233.669 175.076 233.62C175.079 233.572 175.063 233.523 175.031 233.487C174.998 233.45 174.953 233.427 174.904 233.424Z" fill="#263238"/>
<path d="M176.952 234.779C174.064 234.117 170.488 234.418 168.183 236.398C168.091 236.478 168.183 236.601 168.299 236.576C171.116 235.794 174.009 235.315 176.928 235.147C176.977 235.151 177.025 235.134 177.062 235.102C177.098 235.07 177.121 235.024 177.124 234.976C177.127 234.927 177.111 234.879 177.079 234.842C177.047 234.805 177.001 234.783 176.952 234.779Z" fill="#263238"/>
<path d="M176.456 224.219C175.376 222.594 173.218 223.219 171.966 224.219C169.839 225.924 168.2 228.16 167.214 230.701C167.214 230.756 167.214 230.793 167.275 230.805C167.275 231.026 167.465 231.272 167.716 231.186C170.17 230.395 172.862 229.855 174.984 228.334C176.223 227.42 177.474 225.752 176.456 224.219ZM171.169 229.199C169.979 229.622 168.777 229.978 167.6 230.425C168.532 229.168 169.403 227.868 170.458 226.703C170.96 226.134 171.499 225.6 172.071 225.102C172.966 224.348 176.462 222.814 175.818 225.985C175.462 227.733 172.586 228.702 171.169 229.199Z" fill="#263238"/>
<path d="M159.848 229.603C162.203 230.726 164.963 230.787 167.502 231.137C167.766 231.173 167.907 230.904 167.87 230.683C167.881 230.679 167.891 230.673 167.9 230.664C167.909 230.656 167.915 230.646 167.919 230.635C167.923 230.624 167.925 230.612 167.924 230.6C167.923 230.588 167.919 230.576 167.913 230.566C166.491 228.249 164.487 226.346 162.099 225.047C160.695 224.311 158.456 224.078 157.683 225.862C156.954 227.524 158.475 228.959 159.848 229.603ZM158.622 227.475C157.432 224.47 161.142 225.366 162.154 225.948C162.795 226.341 163.41 226.775 163.994 227.248C165.202 228.243 166.359 229.3 167.459 230.413C166.232 230.161 164.975 230.02 163.73 229.8C162.277 229.573 159.278 229.137 158.622 227.475Z" fill="#263238"/>
<path d="M152.845 219.192L158.789 219.43L160.301 181.615L154.357 181.377L152.845 219.192Z" fill="#DBDBDB"/>
<path d="M162.277 189.391C162.596 189.612 160.59 193.187 159.824 193.531C159.057 193.874 155.347 194.089 153.893 193.469C153.194 193.169 151.636 189.495 151.655 189.219C151.673 188.943 159.486 187.465 162.277 189.391Z" fill="#C7C7C7"/>
<path d="M150.398 219.76C150.079 219.533 152.139 215.989 152.931 215.658C153.722 215.326 157.414 215.161 158.861 215.805C159.554 216.111 161.063 219.809 161.038 220.098C161.013 220.386 153.157 221.711 150.398 219.76Z" fill="#C7C7C7"/>
<path d="M172.193 169.472C173.751 169.104 172.745 183.087 171.139 185.006C169.004 187.557 162.927 189.955 156.678 190.029C151.281 190.09 145.749 187.061 143.676 185.239C141.603 183.418 142.578 168.503 143.29 168.81C146.368 170.165 152.587 174.096 172.193 169.472Z" fill="#A6A6A6"/>
<path d="M144.743 264.658C143.198 265.167 97.9689 264.842 96.2947 263.763C95.6814 263.364 97.3986 220.478 97.3986 220.478L125.701 220.613L124.751 249.308C124.751 249.308 141.548 256.974 143.259 258.354C144.97 259.734 146.283 264.161 144.743 264.658Z" fill="#FFBDA7"/>
<path d="M144.743 264.658C143.204 265.161 97.9689 264.842 96.2947 263.769C95.9451 263.542 96.2947 250.516 96.7117 238.809L125.082 239.256L124.751 249.308C124.751 249.308 141.548 256.968 143.259 258.354C144.97 259.74 146.289 264.155 144.743 264.658Z" fill="#EBEBEB"/>
<path d="M144.829 264.664C143.278 265.161 97.969 264.854 96.3008 263.763C95.5281 263.26 96.4542 253.539 96.3928 243.629L125.1 243.96L124.898 249.136C124.898 249.136 141.683 256.937 143.382 258.335C145.081 259.734 146.375 264.174 144.829 264.664Z" fill="#FE2222"/>
<path d="M144.222 262.892C136.826 262.604 106.972 262.138 99.637 262.414C99.5757 262.414 99.5757 262.456 99.637 262.456C106.959 262.904 136.82 263.131 144.216 263.008C144.375 263.008 144.375 262.898 144.222 262.892Z" fill="#263238"/>
<path d="M125.965 247.511C123.058 246.898 119.495 247.321 117.238 249.351C117.152 249.424 117.238 249.547 117.361 249.523C120.155 248.666 123.034 248.108 125.946 247.861C125.984 247.851 126.017 247.829 126.042 247.799C126.066 247.768 126.081 247.731 126.083 247.692C126.085 247.654 126.074 247.615 126.053 247.583C126.032 247.55 126.001 247.525 125.965 247.511Z" fill="#263238"/>
<path d="M128.044 248.805C125.143 248.222 121.574 248.615 119.323 250.645C119.231 250.725 119.323 250.847 119.44 250.817C122.234 249.959 125.113 249.404 128.025 249.161C128.065 249.153 128.101 249.131 128.128 249.1C128.155 249.07 128.17 249.031 128.172 248.99C128.174 248.949 128.163 248.909 128.14 248.876C128.116 248.842 128.083 248.817 128.044 248.805Z" fill="#263238"/>
<path d="M130.129 250.099C127.222 249.486 123.659 249.909 121.402 251.939C121.316 252.019 121.433 252.141 121.525 252.117C124.319 251.257 127.197 250.699 130.111 250.455C130.15 250.447 130.187 250.425 130.213 250.394C130.24 250.364 130.255 250.325 130.257 250.284C130.259 250.243 130.248 250.203 130.225 250.17C130.202 250.136 130.168 250.111 130.129 250.099Z" fill="#263238"/>
<path d="M132.208 251.399C129.307 250.786 125.738 251.209 123.487 253.239C123.401 253.319 123.487 253.441 123.61 253.411C126.404 252.553 129.283 251.998 132.196 251.755C132.235 251.746 132.271 251.724 132.297 251.693C132.323 251.661 132.338 251.622 132.339 251.582C132.34 251.541 132.328 251.501 132.305 251.468C132.281 251.435 132.247 251.411 132.208 251.399Z" fill="#263238"/>
<path d="M131.435 240.851C130.313 239.262 128.173 239.937 126.946 240.943C124.866 242.704 123.286 244.982 122.365 247.548C122.36 247.559 122.358 247.571 122.358 247.584C122.359 247.596 122.363 247.608 122.37 247.618C122.377 247.629 122.386 247.637 122.397 247.643C122.408 247.649 122.42 247.652 122.432 247.652C122.432 247.873 122.635 248.112 122.88 248.02C125.303 247.168 127.989 246.554 130.074 244.954C131.288 244.064 132.496 242.36 131.435 240.851ZM126.284 245.978C125.106 246.426 123.91 246.818 122.751 247.309C123.603 245.995 124.524 244.728 125.511 243.512C125.992 242.928 126.515 242.379 127.075 241.869C127.952 241.09 131.405 239.465 130.847 242.648C130.54 244.408 127.688 245.438 126.29 245.978H126.284Z" fill="#263238"/>
<path d="M114.975 246.677C117.361 247.738 120.12 247.726 122.665 248.008C122.722 248.01 122.779 247.999 122.831 247.975C122.882 247.951 122.928 247.915 122.963 247.87C122.997 247.825 123.021 247.772 123.031 247.716C123.041 247.66 123.038 247.602 123.021 247.548C123.07 247.548 123.101 247.48 123.064 247.425C121.583 245.138 119.527 243.279 117.103 242.034C115.68 241.341 113.423 241.164 112.712 242.973C112.019 244.678 113.583 246.064 114.975 246.677ZM113.693 244.586C112.424 241.611 116.146 242.409 117.189 242.967C117.848 243.331 118.481 243.741 119.084 244.193C120.319 245.154 121.504 246.178 122.635 247.26C121.408 247.045 120.145 246.935 118.894 246.763C117.404 246.585 114.392 246.223 113.693 244.586Z" fill="#263238"/>
<path d="M139.997 93.2728C139.997 93.2728 139.383 105.826 136.476 116.013C136.243 116.859 135.986 117.687 135.71 118.466C133.017 119.563 130.428 120.901 127.976 122.465C127.976 122.465 126.75 171.637 126.83 174.685C127.118 186.104 124.99 241.752 124.99 241.752L96.5952 241.893C96.5952 241.893 98.6313 178.965 98.5822 174.783C98.5086 168.037 103.488 93.2666 103.488 93.2666L139.997 93.2728Z" fill="#FFBDA7"/>
<path d="M139.997 93.2728C139.997 93.2728 139.383 105.826 136.476 116.013C136.243 116.859 135.992 117.687 135.716 118.466C133.019 119.562 130.426 120.901 127.97 122.465C127.97 122.465 128.534 160.003 128.436 164.4C128.436 164.4 99.0851 164.038 96.8098 163.443C97.5028 152.227 98.8888 137.686 100.557 121.128C100.557 121.128 99.0789 118.337 99.036 113.321C98.9931 108.071 100.618 98.8781 103.488 93.2789L139.997 93.2728Z" fill="#37474F"/>
<path d="M123.959 124.268C125.186 123.391 126.498 122.655 127.799 121.894C129.099 121.134 130.466 120.379 131.852 119.711C134.576 118.461 137.381 117.396 140.248 116.522C140.322 116.522 140.371 116.62 140.297 116.651C137.562 117.877 134.912 119.263 132.196 120.52C130.828 121.134 129.448 121.747 128.074 122.36C126.701 122.974 125.37 123.697 123.99 124.292C123.953 124.335 123.923 124.286 123.959 124.268Z" fill="#263238"/>
<path d="M131.092 110.236C131.092 108.881 131.184 107.531 131.227 106.182C131.343 102.999 131.417 99.7919 131.668 96.6151C131.668 96.5891 131.679 96.5641 131.697 96.5457C131.715 96.5273 131.74 96.517 131.766 96.517C131.792 96.517 131.817 96.5273 131.836 96.5457C131.854 96.5641 131.865 96.5891 131.865 96.6151C131.944 99.0682 131.865 101.552 131.865 104.017C131.865 105.244 131.865 106.47 131.822 107.697C131.76 108.872 131.76 110.049 131.822 111.223C131.901 112.113 132.122 113.836 133.281 113.928C134.44 114.02 135.195 113.002 135.452 112.131C136.042 109.888 136.398 107.591 136.513 105.275C136.63 103.925 136.734 98.2464 136.642 96.8788C136.642 96.793 136.771 96.793 136.777 96.8788C136.875 98.2709 137.084 99.6508 137.151 101.049C137.218 102.447 137.243 103.827 137.151 105.213C137.059 106.599 136.992 107.881 136.808 109.206C136.692 110.413 136.422 111.6 136.004 112.738C135.845 113.223 135.57 113.662 135.202 114.016C134.834 114.37 134.385 114.628 133.895 114.768C133.765 114.794 133.634 114.808 133.502 114.811C133.502 115.099 133.459 115.387 133.447 115.67C133.447 116.117 133.373 116.559 133.318 117.006C133.26 117.443 133.174 117.875 133.06 118.3C132.973 118.727 132.826 119.14 132.625 119.527C132.617 119.539 132.605 119.547 132.592 119.552C132.579 119.557 132.564 119.557 132.55 119.553C132.537 119.549 132.525 119.541 132.516 119.529C132.508 119.518 132.503 119.504 132.502 119.49C132.485 119.063 132.514 118.635 132.588 118.215C132.643 117.785 132.699 117.344 132.778 116.914C132.858 116.485 132.932 116.068 133.011 115.645C133.067 115.363 133.103 115.069 133.152 114.78C132.809 114.725 132.486 114.583 132.212 114.369C131.939 114.154 131.724 113.874 131.589 113.554C131.174 112.5 131.004 111.365 131.092 110.236Z" fill="#263238"/>
<path d="M100.128 157.102C108.621 157.035 117.128 157.286 125.603 157.924C125.62 157.929 125.634 157.939 125.645 157.953C125.655 157.966 125.661 157.983 125.661 158.001C125.661 158.018 125.655 158.035 125.645 158.049C125.634 158.063 125.62 158.073 125.603 158.077C117.103 158.182 108.597 157.899 100.122 157.292C100.101 157.286 100.082 157.273 100.069 157.256C100.057 157.238 100.05 157.217 100.051 157.195C100.051 157.173 100.059 157.152 100.073 157.135C100.087 157.119 100.106 157.107 100.128 157.102Z" fill="#263238"/>
<path d="M105.12 109.984C107.039 110.188 108.973 110.21 110.897 110.052C112.718 109.839 114.446 109.133 115.895 108.01C119.047 105.489 120.384 101.429 121.194 97.6209C121.194 97.603 121.201 97.5858 121.213 97.5732C121.226 97.5605 121.243 97.5534 121.261 97.5534C121.279 97.5534 121.296 97.5605 121.309 97.5732C121.321 97.5858 121.328 97.603 121.328 97.6209C121.016 100.914 120.353 104.33 118.262 107.004C117.367 108.183 116.227 109.154 114.92 109.85C113.526 110.515 111.999 110.853 110.455 110.837C108.644 110.845 106.84 110.626 105.083 110.187C105.064 110.175 105.049 110.158 105.04 110.138C105.031 110.118 105.028 110.095 105.032 110.073C105.036 110.051 105.047 110.031 105.062 110.015C105.078 109.999 105.098 109.989 105.12 109.984Z" fill="#263238"/>
<path d="M151.477 264.891L150.625 260.899L146.663 171.41L149.294 159.592L146.804 112.579L146.51 75.4572L151.851 73.9547L153.685 74.8378L151.851 112.579L154.212 159.592L151.446 172.839L151.477 264.891Z" fill="#2FA45E"/>
<path opacity="0.4" d="M151.477 264.891L150.625 260.899L146.663 171.41L149.294 159.592L146.804 112.579L146.51 75.4572L151.851 73.9547L153.685 74.8378L151.851 112.579L154.212 159.592L151.446 172.839L151.477 264.891Z" fill="black"/>
<path d="M128.743 56.0164C143.56 59.1318 170.832 56.5683 171.372 49.6261C171.746 44.8119 168.477 29.4555 159.505 21.6915C158.18 20.5385 146.528 34.8462 148.233 36.6063C149.984 38.6352 151.353 40.9644 152.274 43.4811C152.55 44.3949 137.065 46.9706 130.932 48.4854C119.587 51.2758 124.634 55.1333 128.743 56.0164Z" fill="#FFBDA7"/>
<path d="M143.596 59.5427L141.407 44.3642C141.407 44.3642 130.834 46.1243 125.027 48.9454C119.219 51.7664 121.598 54.8512 127.657 56.55C133.717 58.2487 143.596 59.5427 143.596 59.5427Z" fill="#2FA45E"/>
<path opacity="0.1" d="M142.02 59.322C137.186 58.6594 132.391 57.732 127.657 56.5438C121.598 54.8451 119.213 51.7664 125.027 48.9392L125.382 48.7675L142.02 59.322Z" fill="black"/>
<path d="M138.2 45.4865C138.456 49.8296 139.003 54.1506 139.837 58.4204H139.947C139.708 54.8696 138.721 47.8353 138.347 45.4865C138.341 45.4252 138.194 45.4436 138.2 45.4865Z" fill="#263238"/>
<path d="M130.246 52.5759H130.209C130.264 54.7285 130.246 59.7206 126.885 59.3219C125.536 59.1502 124.327 58.2548 123.328 57.384C122.304 56.4849 121.381 55.4773 120.574 54.379C119.673 53.1524 118.869 51.8277 118.048 50.5583C118.017 50.5031 117.937 50.5583 117.968 50.6135C118.615 52.0022 119.366 53.3408 120.212 54.6181C121.046 55.8541 122.042 56.9721 123.174 57.9421C124.254 58.8375 125.536 59.7328 126.971 59.8432C127.596 59.8968 128.22 59.7324 128.737 59.3781C129.255 59.0237 129.634 58.5012 129.81 57.8991C130.354 56.1801 130.503 54.3605 130.246 52.5759Z" fill="#263238"/>
<path d="M102.624 103.171C102.734 103.281 143.259 98.9149 143.639 98.4242C144.167 97.7251 132.6 56.4825 129.013 49.7119C127.486 46.8296 120.151 46.4125 117.256 49.1416C110.001 55.9612 104.954 78.0206 103.893 84.6379C102.127 95.5357 102.219 102.766 102.624 103.171Z" fill="white"/>
<path d="M128.222 48.4793L138.163 105.477L145.816 101.54C145.816 101.54 133.122 59.5673 132.324 56.6603C131.527 53.7534 129.767 49.5709 128.222 48.4793Z" fill="#2FA45E"/>
<path d="M119.642 47.3079C120.145 47.0933 120.586 69.7967 120.642 73.5376C120.697 77.2786 121.065 106.808 121.065 106.808L98.6558 103.901C98.6558 103.901 102.624 77.6159 109.738 61.5849C113.748 52.5023 115.932 48.8534 119.642 47.3079Z" fill="#2FA45E"/>
<path d="M127.657 55.5074C125.204 55.6546 121.365 50.9998 120.298 47.8353C120.225 47.6146 120.911 45.5724 121.586 43.0579C121.997 41.5309 122.42 39.8137 122.696 38.2253L132.257 42.3772C131.343 44.2684 130.664 46.264 130.233 48.3198C130.198 48.5387 130.184 48.7605 130.19 48.9822C130.19 48.9822 130.19 49.0496 130.19 49.0925C130.16 50.3682 130.012 55.3663 127.657 55.5074Z" fill="#FFBDA7"/>
<path d="M130.172 48.9822C130.175 49.0168 130.175 49.0517 130.172 49.0864C129.824 49.078 129.477 49.039 129.135 48.9699C123.389 47.8415 123.248 40.5435 123.334 38.5074L125.72 39.5439L132.245 42.3772C131.328 44.2672 130.648 46.2632 130.221 48.3198C130.187 48.5389 130.171 48.7604 130.172 48.9822Z" fill="#263238"/>
<path d="M119.495 29.5107C119.139 33.3253 123.174 43.3094 126.192 45.094C130.583 47.6881 136.716 46.7621 138.647 41.7271C140.524 36.8209 135.041 23.9422 131.76 22.4151C126.903 20.1828 120.028 23.8747 119.495 29.5107Z" fill="#FFBDA7"/>
<path opacity="0.2" d="M120.844 36.1709C122.218 40.0284 124.383 44.033 126.198 45.094C130.583 47.6881 136.709 46.7621 138.647 41.7271C139.334 39.9302 139.034 37.0417 138.2 34.0367C138.2 34.1839 138.273 36.4898 137.059 37.0172C136.705 37.1626 136.315 37.1941 135.942 37.1073C135.569 37.0205 135.233 36.8196 134.98 36.5327H134.091C133.069 37.6651 131.669 38.3849 130.153 38.5565C129.096 38.7313 128.013 38.6744 126.979 38.3895C125.946 38.1047 124.987 37.5988 124.168 36.9068C123.07 35.8704 122.99 35.3859 122.99 35.3859L120.844 36.1709Z" fill="#263238"/>
<path d="M130.767 33.6503C130.767 33.6503 130.73 33.7055 130.767 33.73C131.055 34.3985 131.276 35.208 130.767 35.6741C130.767 35.6741 130.767 35.7232 130.767 35.7109C131.454 35.3062 131.147 34.2329 130.767 33.6503Z" fill="#263238"/>
<path d="M129.89 33.1904C128.774 33.5338 129.553 35.7416 130.583 35.4227C131.613 35.1038 130.822 32.896 129.89 33.1904Z" fill="#263238"/>
<path d="M134.698 32.2582C134.698 32.2582 134.759 32.2582 134.771 32.3011C134.986 32.9941 135.354 33.7484 136.053 33.7546C136.053 33.7546 136.09 33.7914 136.053 33.7975C135.274 33.9386 134.79 32.9512 134.698 32.2582Z" fill="#263238"/>
<path d="M135.054 31.3321C136.121 30.8599 136.992 33.037 135.998 33.4725C135.005 33.9079 134.158 31.7246 135.054 31.3321Z" fill="#263238"/>
<path d="M128.663 32.4851C128.933 32.3011 129.154 32.0926 129.411 31.8718C129.692 31.6906 129.907 31.424 130.025 31.1114C130.046 31.0035 130.03 30.8917 129.98 30.7938C129.93 30.6959 129.849 30.6177 129.749 30.5717C129.537 30.5051 129.311 30.4973 129.095 30.5491C128.879 30.601 128.681 30.7105 128.522 30.866C128.155 31.1219 127.898 31.5077 127.805 31.9454C127.773 32.0554 127.778 32.1729 127.818 32.28C127.859 32.387 127.934 32.4779 128.031 32.5389C128.128 32.5999 128.242 32.6276 128.356 32.6179C128.47 32.6082 128.578 32.5616 128.663 32.4851Z" fill="#263238"/>
<path d="M135.71 30.4061C135.434 30.5778 135.152 30.6943 134.857 30.8415C134.578 31.0383 134.242 31.1375 133.901 31.1236C133.794 31.0979 133.699 31.0377 133.63 30.9523C133.561 30.8668 133.523 30.7611 133.52 30.6514C133.543 30.4326 133.623 30.2239 133.754 30.0469C133.884 29.87 134.06 29.7314 134.262 29.6456C134.648 29.4173 135.105 29.3407 135.544 29.431C135.648 29.4538 135.743 29.5071 135.816 29.584C135.889 29.661 135.938 29.758 135.956 29.8628C135.973 29.9675 135.959 30.0752 135.916 30.172C135.872 30.2688 135.8 30.3503 135.71 30.4061Z" fill="#263238"/>
<path d="M132.656 40.1449C132.865 40.2912 133.118 40.3625 133.373 40.3473C133.627 40.2525 133.857 40.1039 134.048 39.9118C134.048 39.9118 134.097 39.9118 134.091 39.9118C134.041 40.0813 133.947 40.2341 133.817 40.354C133.687 40.4739 133.528 40.5564 133.355 40.5926C133.203 40.6063 133.05 40.5738 132.916 40.4994C132.783 40.425 132.675 40.3122 132.607 40.1755C132.582 40.1633 132.625 40.1326 132.656 40.1449Z" fill="#263238"/>
<path d="M132.656 37.8451C132.924 38.0559 133.233 38.2084 133.564 38.2928C133.894 38.3773 134.239 38.3919 134.575 38.3357C134.87 38.2885 135.156 38.2019 135.428 38.0782L135.581 37.9984L135.722 37.9248C135.755 37.904 135.781 37.8731 135.795 37.8367C135.809 37.8003 135.812 37.7603 135.802 37.7225V37.655V37.5998C135.63 37.0663 135.293 36.2813 135.293 36.2813C135.52 36.2813 136.66 36.41 136.519 36.1402C135.624 33.7806 134.488 31.5199 133.128 29.3942C133.118 29.3825 133.104 29.3746 133.089 29.3716C133.074 29.3687 133.059 29.371 133.045 29.3782C133.031 29.3853 133.021 29.3969 133.015 29.4109C133.008 29.425 133.007 29.4407 133.011 29.4555C133.827 31.6327 135.023 33.6503 135.881 35.8274C135.472 35.7844 135.059 35.803 134.655 35.8826C134.587 35.9256 135.323 37.379 135.385 37.6243C134.969 37.8198 134.517 37.9292 134.058 37.9461C133.598 37.9629 133.14 37.8869 132.711 37.7225C132.631 37.7409 132.594 37.8083 132.656 37.8451Z" fill="#263238"/>
<path d="M135.09 38.0782C134.908 38.5349 134.61 38.9364 134.226 39.2434C134.012 39.4059 133.752 39.4961 133.484 39.501C132.87 39.501 132.741 39.0103 132.723 38.5565C132.714 38.3137 132.735 38.0707 132.784 37.8329C133.507 38.1576 134.315 38.2436 135.09 38.0782Z" fill="#263238"/>
<path d="M134.226 39.2434C134.012 39.4059 133.752 39.4961 133.484 39.5009C132.87 39.5009 132.742 39.0103 132.723 38.5565C133.014 38.4861 133.321 38.5155 133.593 38.6401C133.866 38.7646 134.088 38.9771 134.226 39.2434Z" fill="#FF98B9"/>
<path d="M122.046 37.6856C124.591 37.011 124.879 33.6012 123.481 31.418C123.481 31.418 130.393 30.0381 128.896 24.6229C129.675 25.1706 130.568 25.5364 131.507 25.6935C132.446 25.8506 133.409 25.7949 134.324 25.5306L135.409 27.2416C136.023 26.8123 136.084 24.6413 133.913 23.6907C133.129 22.2836 131.874 21.1979 130.368 20.6244C129.7 20.3436 128.966 20.2563 128.25 20.3723C127.535 20.4883 126.866 20.803 126.321 21.2806C125.625 21.0144 124.881 20.9019 124.138 20.9507C123.395 20.9995 122.672 21.2085 122.018 21.5634C121.363 21.9182 120.794 22.4105 120.348 23.0064C119.901 23.6023 119.59 24.2876 119.433 25.0154C119.433 25.0154 116.643 26.8552 116.882 29.3635C116.91 30.0433 117.074 30.7105 117.366 31.3249C117.658 31.9394 118.071 32.4884 118.581 32.9389C118.581 32.9389 118.072 34.1348 119.194 36.0053C119.875 37.1828 121.286 37.888 122.046 37.6856Z" fill="#263238"/>
<path d="M128.59 24.1998C128.786 24.6138 128.938 25.0476 129.043 25.4938C129.162 25.9278 129.225 26.3748 129.234 26.8246C129.263 27.7251 128.947 28.6028 128.35 29.2777C127.733 29.9281 126.97 30.4222 126.124 30.7189C125.695 30.8538 125.266 31.0194 124.824 31.1298C124.383 31.2401 123.929 31.326 123.481 31.4425C123.941 31.3996 124.395 31.3383 124.855 31.2831C125.315 31.2279 125.756 31.0623 126.21 30.958C127.114 30.6746 127.934 30.1709 128.596 29.4923C129.227 28.7596 129.544 27.8078 129.479 26.843C129.41 25.9011 129.104 24.9919 128.59 24.1998Z" fill="#263238"/>
<path d="M133.036 26.1009C132.228 26.1064 131.425 25.9736 130.663 25.7084C130.289 25.5757 129.937 25.392 129.614 25.1626C129.296 24.9246 129.004 24.6532 128.743 24.3531C128.914 24.7319 129.16 25.072 129.467 25.3527C129.789 25.6468 130.169 25.8703 130.583 26.0089C130.976 26.1563 131.39 26.2371 131.809 26.2481C132.224 26.2685 132.638 26.2187 133.036 26.1009Z" fill="#263238"/>
<path d="M123.45 37.5078C123.45 37.5078 120.384 34.699 119.029 35.8704C117.673 37.0417 120.556 41.4941 122.488 41.7517C122.733 41.8038 122.986 41.8054 123.231 41.7563C123.477 41.7071 123.71 41.6083 123.916 41.4659C124.123 41.3235 124.297 41.1405 124.43 40.9281C124.563 40.7157 124.651 40.4784 124.689 40.2307L123.45 37.5078Z" fill="#FFBDA7"/>
<path d="M119.881 37.1276C119.851 37.1276 119.881 37.1705 119.881 37.1766C121.243 37.3974 122.163 38.4032 122.892 39.501C122.792 39.3925 122.669 39.3072 122.533 39.2509C122.396 39.1947 122.249 39.1689 122.101 39.1753C121.953 39.1817 121.809 39.2202 121.678 39.2881C121.546 39.356 121.431 39.4516 121.341 39.5684C121.31 39.5684 121.341 39.642 121.39 39.6236C121.594 39.5058 121.83 39.4537 122.064 39.4746C122.299 39.4954 122.522 39.5882 122.702 39.7401C123.001 39.9952 123.272 40.2809 123.512 40.5926C123.591 40.6968 123.782 40.5926 123.708 40.4699C123.365 38.8447 121.623 36.9007 119.881 37.1276Z" fill="#263238"/>
<path d="M117.091 32.804L115.803 25.8679C115.803 25.8679 119.771 21.3849 120.819 20.5631C121.868 19.7413 126.615 17.6132 126.615 17.6132L131.809 21.1457L117.091 32.804Z" fill="#FE2222"/>
<path opacity="0.1" d="M117.288 33.1908L116 26.2547C116 26.2547 119.968 21.7716 121.017 20.9498C122.065 20.1281 126.812 18 126.812 18L132.006 21.5325L117.288 33.1908Z" fill="black"/>
<path d="M137.605 21.4584C137.605 21.4584 126.903 26.5793 116.852 38.5258L117.103 32.804C117.103 32.804 123.512 24.2182 131.822 21.1518L137.605 21.4584Z" fill="#FE2222"/>
<path opacity="0.2" d="M137.753 21.3066C137.753 21.3066 127.052 26.4275 117 38.374L117.251 32.6522C117.251 32.6522 123.66 24.0664 131.97 21L137.753 21.3066Z" fill="black"/>
<path d="M116.833 48.835C116.159 48.191 119.36 46.1918 120.482 46.8664C121.604 47.541 127.872 58.2978 127.388 71.5506C126.903 84.8034 99.8333 98.0317 98.6129 96.1735C98.1038 95.3885 98.2142 93.4015 98.8336 92.6043C99.7045 91.4759 119.415 81.3753 120.66 73.0654C121.77 65.6816 119.728 51.6131 116.833 48.835Z" fill="#263238"/>
<path d="M111.387 56.1207C103.415 71.7714 101.575 91.1324 103.893 93.5303C110.204 99.9758 132.858 100.405 138.494 100.307C140.769 100.264 140.616 81.4243 138.187 81.2526C132.423 80.854 119.366 79.3147 119.127 79.1429C118.618 78.7688 119.464 70.7595 119.237 57.9789C119.053 47.2773 114.638 49.7181 111.387 56.1207Z" fill="#FFBDA7"/>
<path d="M160.633 83.81C160.382 85.0365 158.83 85.2941 158.83 85.2941C159.533 85.9546 159.984 86.8393 160.106 87.7962C160.241 89.495 157.653 90.4456 157.653 90.4456C158.241 91.2838 158.563 92.2795 158.579 93.3034C158.542 94.9409 156.046 96.2717 156.046 96.2717C156.148 97.3378 155.877 98.4065 155.279 99.2951C152.483 103.165 140.285 101.135 136.93 99.798L135.287 81.596C135.287 81.596 146.614 76.745 151.6 77.3951C154.341 77.7508 161.314 80.4553 160.633 83.81Z" fill="#FFBDA7"/>
<path d="M158.793 85.2205C156.052 83.8897 152.998 83.2151 150.042 82.5957C149.981 82.5957 149.956 82.6815 150.042 82.6938C152.986 83.2764 155.85 84.6624 158.769 85.3615C158.824 85.3799 158.861 85.2573 158.793 85.2205Z" fill="#263238"/>
<path d="M157.567 90.2064C156.916 89.9639 156.235 89.8092 155.543 89.7464C154.815 89.632 154.085 89.5277 153.354 89.4337C151.894 89.2558 150.422 89.1025 148.95 88.9982C148.889 88.9982 148.864 89.0902 148.95 89.1025C150.41 89.2865 151.863 89.4889 153.311 89.7158C154.041 89.8384 154.764 89.9733 155.488 90.1021C156.162 90.2748 156.853 90.3715 157.548 90.3904C157.565 90.3819 157.579 90.3695 157.589 90.3543C157.599 90.3392 157.606 90.3216 157.607 90.3034C157.609 90.2851 157.607 90.2667 157.599 90.2497C157.592 90.2328 157.581 90.2179 157.567 90.2064Z" fill="#263238"/>
<path d="M155.96 96.2655C155.37 96.0534 154.748 95.9435 154.12 95.9405L152.121 95.7259C150.784 95.5725 149.447 95.4192 148.122 95.2168C148.055 95.2168 148.03 95.3088 148.122 95.3211C149.472 95.5296 150.821 95.7565 152.17 95.9344C152.832 96.0325 153.501 96.1306 154.163 96.2165C154.765 96.3604 155.389 96.3937 156.003 96.3146C156.005 96.3083 156.006 96.3015 156.005 96.2949C156.004 96.2883 156.001 96.2821 155.996 96.2771C155.992 96.272 155.986 96.2683 155.98 96.2662C155.973 96.2642 155.967 96.264 155.96 96.2655Z" fill="#263238"/>
<path d="M104.592 69.2324L119.82 71.0723C119.82 71.0723 120.893 60.4074 119.685 54.0601C118.477 47.7127 114.883 49.2091 111.663 54.612C108.444 60.0149 104.592 69.2324 104.592 69.2324Z" fill="#2FA45E"/>
<path d="M119.544 67.6686C115.286 66.7789 110.973 66.1765 106.634 65.8656C106.634 65.8656 106.592 65.9637 106.634 65.9698C110.124 66.669 117.177 67.5398 119.513 67.8096C119.544 67.8219 119.544 67.6686 119.544 67.6686Z" fill="#263238"/>
<path d="M119.145 71.0109H119.826L119.759 71.0661C119.759 70.2137 119.789 69.3674 119.808 68.521C119.9 66.1538 120.09 63.2714 120.255 60.9103C120.563 64.2998 120.438 67.7147 119.881 71.0723V71.1397C119.636 71.0968 119.397 71.0416 119.158 70.9864L119.145 71.0109Z" fill="#263238"/>
<path d="M161.351 23.3841C161.351 23.3841 152.336 13.7925 145.406 11.2842C142.499 10.2294 129.497 8.57357 128.988 11.7013C128.528 14.5346 139.849 14.6879 139.849 14.6879C139.849 14.6879 128.436 13.5227 128.51 17.0367C128.584 20.5508 141.389 19.0237 141.389 19.0237C141.389 19.0237 129.638 18.0854 130.288 21.6976C130.773 24.4267 142.462 23.6969 142.462 23.6969C142.462 23.6969 132.355 22.9671 132.735 25.7943C133.159 28.9158 143.983 28.922 143.983 28.922C144.694 34.1839 146.651 36.686 149.643 38.1211C150.361 38.44 161.351 23.3841 161.351 23.3841Z" fill="#FFBDA7"/>
<path d="M143.805 14.8351C142.474 14.6511 141.119 14.4549 139.776 14.3874C138.433 14.32 137.077 14.3077 135.728 14.3874C133.966 14.4272 132.214 14.6742 130.509 15.1233C133.576 14.5591 138.42 14.7186 139.77 14.786C141.119 14.8535 142.462 14.8474 143.805 14.9148C143.842 14.8903 143.842 14.8412 143.805 14.8351Z" fill="#263238"/>
<path d="M143.658 19.7045C141.941 19.545 140.248 19.3181 138.525 19.2323C136.801 19.1464 135.17 19.2323 133.459 19.2323C133.324 19.2323 133.367 19.3058 133.502 19.3058C135.219 19.3426 136.801 19.5144 138.519 19.5696C140.236 19.6247 141.953 19.6186 143.658 19.7351C143.682 19.7474 143.682 19.7106 143.658 19.7045Z" fill="#263238"/>
<path d="M144.283 23.9115C141.658 23.5958 139.007 23.5526 136.372 23.7827C136.243 23.7827 136.311 23.8747 136.446 23.8747C139.071 23.8747 141.137 23.8747 144.265 23.9974C144.314 24.0035 144.339 23.9177 144.283 23.9115Z" fill="#263238"/>
<path d="M136.832 28.2351C135.379 28.1247 131.705 27.3459 132.735 25.2178C133.76 24.0587 135.44 23.8318 136.881 23.5742V23.9974C135.093 23.9433 133.326 23.6059 131.644 22.9977C131.123 22.7586 130.497 22.4581 130.313 21.8693C130.638 22.3568 131.139 22.6996 131.711 22.826C133.404 23.2819 135.147 23.5311 136.9 23.5681L139.003 23.654C137.218 23.9913 135.029 24.1384 133.484 25.0767C133.325 25.1527 133.191 25.2706 133.094 25.4176C132.998 25.5647 132.944 25.7352 132.938 25.9108C132.955 26.095 133.01 26.2737 133.098 26.4361C133.187 26.5984 133.307 26.7411 133.453 26.8552C134.467 27.5607 135.626 28.032 136.844 28.2351H136.832Z" fill="#263238"/>
</svg>
